<svg xmlns="http://www.w3.org/2000/svg" viewBox="0 0 1200 630" width="1200" height="630" role="img" aria-label="Direzia: il tuo sito in 3 giorni"><title>Direzia: il tuo sito in 3 giorni</title><rect width="1200" height="630" fill="#1A4A37"/><g fill="#FBF7EE" opacity="0.07"><path transform="translate(50 50) scale(0.6666666666666666)" d="M0 8H11V0L24 12L11 24V16H0Z"/><path transform="translate(250 50) scale(0.6666666666666666)" d="M0 8H11V0L24 12L11 24V16H0Z"/><path transform="translate(450 50) scale(0.6666666666666666)" d="M0 8H11V0L24 12L11 24V16H0Z"/><path transform="translate(650 50) scale(0.6666666666666666)" d="M0 8H11V0L24 12L11 24V16H0Z"/><path transform="translate(850 50) scale(0.6666666666666666)" d="M0 8H11V0L24 12L11 24V16H0Z"/><path transform="translate(1050 50) scale(0.6666666666666666)" d="M0 8H11V0L24 12L11 24V16H0Z"/><path transform="translate(100 150) scale(0.6666666666666666)" d="M0 8H11V0L24 12L11 24V16H0Z"/><path transform="translate(300 150) scale(0.6666666666666666)" d="M0 8H11V0L24 12L11 24V16H0Z"/><path transform="translate(500 150) scale(0.6666666666666666)" d="M0 8H11V0L24 12L11 24V16H0Z"/><path transform="translate(700 150) scale(0.6666666666666666)" d="M0 8H11V0L24 12L11 24V16H0Z"/><path transform="translate(900 150) scale(0.6666666666666666)" d="M0 8H11V0L24 12L11 24V16H0Z"/><path transform="translate(1100 150) scale(0.6666666666666666)" d="M0 8H11V0L24 12L11 24V16H0Z"/><path transform="translate(50 250) scale(0.6666666666666666)" d="M0 8H11V0L24 12L11 24V16H0Z"/><path transform="translate(250 250) scale(0.6666666666666666)" d="M0 8H11V0L24 12L11 24V16H0Z"/><path transform="translate(450 250) scale(0.6666666666666666)" d="M0 8H11V0L24 12L11 24V16H0Z"/><path transform="translate(650 250) scale(0.6666666666666666)" d="M0 8H11V0L24 12L11 24V16H0Z"/><path transform="translate(850 250) scale(0.6666666666666666)" d="M0 8H11V0L24 12L11 24V16H0Z"/><path transform="translate(1050 250) scale(0.6666666666666666)" d="M0 8H11V0L24 12L11 24V16H0Z"/><path transform="translate(100 350) scale(0.6666666666666666)" d="M0 8H11V0L24 12L11 24V16H0Z"/><path transform="translate(300 350) scale(0.6666666666666666)" d="M0 8H11V0L24 12L11 24V16H0Z"/><path transform="translate(500 350) scale(0.6666666666666666)" d="M0 8H11V0L24 12L11 24V16H0Z"/><path transform="translate(700 350) scale(0.6666666666666666)" d="M0 8H11V0L24 12L11 24V16H0Z"/><path transform="translate(900 350) scale(0.6666666666666666)" d="M0 8H11V0L24 12L11 24V16H0Z"/><path transform="translate(1100 350) scale(0.6666666666666666)" d="M0 8H11V0L24 12L11 24V16H0Z"/><path transform="translate(50 450) scale(0.6666666666666666)" d="M0 8H11V0L24 12L11 24V16H0Z"/><path transform="translate(250 450) scale(0.6666666666666666)" d="M0 8H11V0L24 12L11 24V16H0Z"/><path transform="translate(450 450) scale(0.6666666666666666)" d="M0 8H11V0L24 12L11 24V16H0Z"/><path transform="translate(650 450) scale(0.6666666666666666)" d="M0 8H11V0L24 12L11 24V16H0Z"/><path transform="translate(850 450) scale(0.6666666666666666)" d="M0 8H11V0L24 12L11 24V16H0Z"/><path transform="translate(1050 450) scale(0.6666666666666666)" d="M0 8H11V0L24 12L11 24V16H0Z"/><path transform="translate(100 550) scale(0.6666666666666666)" d="M0 8H11V0L24 12L11 24V16H0Z"/><path transform="translate(300 550) scale(0.6666666666666666)" d="M0 8H11V0L24 12L11 24V16H0Z"/><path transform="translate(500 550) scale(0.6666666666666666)" d="M0 8H11V0L24 12L11 24V16H0Z"/><path transform="translate(700 550) scale(0.6666666666666666)" d="M0 8H11V0L24 12L11 24V16H0Z"/><path transform="translate(900 550) scale(0.6666666666666666)" d="M0 8H11V0L24 12L11 24V16H0Z"/><path transform="translate(1100 550) scale(0.6666666666666666)" d="M0 8H11V0L24 12L11 24V16H0Z"/></g><g transform="translate(700 70) scale(11.5)" opacity="1"><path fill="#0F2F23" fill-rule="evenodd" d="M12 6H25C37 6 44 14 44 24C44 34 37 42 25 42H12Q10 42 10 40V8Q10 6 12 6ZM17 21.5H26V16.5L35 24L26 31.5V26.5H17Z"/><path fill="#F5B21B" d="M17 21.5H26V16.5L35 24L26 31.5V26.5H17Z"/></g><g transform="translate(64 56) scale(1.5)"><path fill="#FBF7EE" fill-rule="evenodd" d="M12 6H25C37 6 44 14 44 24C44 34 37 42 25 42H12Q10 42 10 40V8Q10 6 12 6ZM17 21.5H26V16.5L35 24L26 31.5V26.5H17Z"/><path fill="#F5B21B" d="M17 21.5H26V16.5L35 24L26 31.5V26.5H17Z"/><path fill="#FBF7EE" transform="translate(62 39.74) scale(1)" d="M21.32 -31.92L21.32 -7.4Q21.32 -5.96 21.76 -4.82Q22.2 -3.68 23.68 -3.48L23.68 -3.48Q24.16 -3.44 24.16 -2.96L24.16 -2.96L24.16 -1.64Q24.16 -1.08 23.56 -1.08L23.56 -1.08Q21.6 -1.08 20.3 -0.86Q19 -0.64 18.06 -0.3Q17.12 0.04 16.2 0.44L16.2 0.44Q16.04 0.52 15.92 0.52L15.92 0.52L15.84 0.52Q15.72 0.52 15.72 0.4L15.72 0.4Q15.8 -0.52 15.9 -1.4Q16 -2.28 16.16 -3.16L16.16 -3.16Q15.96 -2.64 15.3 -1.76Q14.64 -0.88 13.38 -0.18Q12.12 0.52 10.08 0.52L10.08 0.52Q8.72 0.52 7.18 -0.04Q5.64 -0.6 4.28 -1.84Q2.92 -3.08 2.06 -5.1Q1.2 -7.12 1.2 -10.04L1.2 -10.04Q1.2 -13.76 2.54 -16.06Q3.88 -18.36 6.02 -19.44Q8.16 -20.52 10.56 -20.52L10.56 -20.52Q13.6 -20.52 15.72 -18.64L15.72 -18.64L15.72 -21.2Q15.72 -22.28 15.58 -23.28Q15.44 -24.28 14.96 -24.98Q14.48 -25.68 13.36 -25.8L13.36 -25.8Q12.88 -25.84 12.88 -26.32L12.88 -26.32L12.88 -27.68Q12.88 -27.92 13.04 -28.02Q13.2 -28.12 13.48 -28.2L13.48 -28.2Q16.64 -29.24 18.42 -30.28Q20.2 -31.32 21 -31.92L21 -31.92Q21.12 -32 21.2 -32L21.2 -32L21.24 -32Q21.32 -32 21.32 -31.92L21.32 -31.92ZM15.72 -6.4L15.72 -12.96Q15.72 -14.84 14.5 -16.16Q13.28 -17.48 11.28 -17.48L11.28 -17.48Q9.36 -17.48 8.28 -16.64Q7.2 -15.8 6.78 -14.4Q6.36 -13 6.36 -11.32L6.36 -11.32Q6.36 -7.48 7.9 -5.24Q9.44 -3 11.88 -3L11.88 -3Q12.96 -3 13.76 -3.54Q14.56 -4.08 15.06 -4.88Q15.56 -5.68 15.72 -6.4L15.72 -6.4ZM37.32 -2.4L37.44 -2.4Q38.04 -2.4 38.04 -1.8L38.04 -1.8L38.04 -0.6Q38.04 0 37.36 0L37.36 0L26.04 0Q25.36 0 25.36 -0.6L25.36 -0.6L25.36 -1.8Q25.36 -2.4 25.96 -2.4L25.96 -2.4L26.04 -2.4Q27.52 -2.4 28.22 -3.5Q28.92 -4.6 28.92 -6.2L28.92 -6.2L28.92 -10.44Q28.92 -11.36 28.78 -12.28Q28.64 -13.2 28.16 -13.88Q27.68 -14.56 26.56 -14.68L26.56 -14.68Q26.08 -14.72 26.08 -15.2L26.08 -15.2L26.08 -16.56Q26.08 -16.8 26.24 -16.9Q26.4 -17 26.68 -17.08L26.68 -17.08Q29.84 -18.12 31.54 -19.22Q33.24 -20.32 34.04 -21.16L34.04 -21.16Q34.12 -21.24 34.2 -21.24L34.2 -21.24L34.32 -21.24Q34.4 -21.24 34.4 -21.16L34.4 -21.16L34.4 -6.24Q34.4 -4.64 35.12 -3.52Q35.84 -2.4 37.32 -2.4L37.32 -2.4ZM31.72 -29.6L31.72 -29.6Q32.76 -29.6 33.76 -28.6L33.76 -28.6Q34.76 -27.6 34.76 -26.6L34.76 -26.6Q34.76 -25.6 33.76 -24.6L33.76 -24.6Q32.76 -23.6 31.72 -23.6L31.72 -23.6Q30.76 -23.6 29.72 -24.6L29.72 -24.6Q28.72 -25.56 28.72 -26.6L28.72 -26.6Q28.72 -27.6 29.72 -28.6L29.72 -28.6Q30.72 -29.6 31.72 -29.6ZM48.36 -15.8L48.36 -15.8Q49.44 -18.12 51.36 -19.32Q53.28 -20.52 55.4 -20.52L55.4 -20.52Q57.28 -20.52 58.6 -19.48Q59.92 -18.44 59.92 -16.4L59.92 -16.4Q59.92 -15.52 59.76 -14.84Q59.6 -14.16 58.88 -13.84L58.88 -13.84L55.12 -12.32Q54.88 -12.24 54.76 -12.24L54.76 -12.24Q54.4 -12.24 54.4 -12.6L54.4 -12.6Q54.4 -12.72 54.48 -12.96L54.48 -12.96Q54.72 -13.52 54.78 -14.04Q54.84 -14.56 54.84 -14.96L54.84 -14.96Q54.84 -16.04 54.3 -16.54Q53.76 -17.04 52.96 -17.04L52.96 -17.04Q52.04 -17.04 51.24 -16.48Q50.44 -15.92 49.84 -15.12Q49.24 -14.32 48.96 -13.56L48.96 -13.56L48.96 -6.2Q48.96 -4.6 49.68 -3.5Q50.4 -2.4 51.88 -2.4L51.88 -2.4L51.96 -2.4Q52.56 -2.4 52.56 -1.8L52.56 -1.8L52.56 -0.6Q52.56 0 51.96 0L51.96 0L40.32 0Q39.72 0 39.72 -0.6L39.72 -0.6L39.72 -1.8Q39.72 -2.4 40.32 -2.4L40.32 -2.4L40.4 -2.4Q41.88 -2.4 42.6 -3.5Q43.32 -4.6 43.32 -6.2L43.32 -6.2L43.32 -11.24Q43.32 -12.32 43.18 -13.32Q43.04 -14.32 42.56 -15.02Q42.08 -15.72 40.96 -15.84L40.96 -15.84Q40.48 -15.88 40.48 -16.36L40.48 -16.36L40.48 -17.72Q40.48 -18.12 41.08 -18.24L41.08 -18.24Q43.92 -18.68 46.06 -19.64Q48.2 -20.6 48.96 -21.16L48.96 -21.16Q49.08 -21.24 49.16 -21.24L49.16 -21.24L49.24 -21.24Q49.32 -21.24 49.32 -21.16L49.32 -21.16Q49.32 -21.12 49.22 -20.56Q49.12 -20 48.98 -19.14Q48.84 -18.28 48.66 -17.38Q48.48 -16.48 48.36 -15.8ZM78.32 -12.24L66.72 -7.16Q67.4 -5.48 68.9 -4.16Q70.4 -2.84 72.72 -2.84L72.72 -2.84Q74 -2.84 75.4 -3.56Q76.8 -4.28 77.84 -5.8L77.84 -5.8Q77.96 -6 78.16 -6L78.16 -6Q78.36 -6 78.58 -5.88Q78.8 -5.76 79.76 -5.2L79.76 -5.2Q79.92 -5.08 79.92 -4.88L79.92 -4.88Q79.92 -4.6 79.68 -4.2L79.68 -4.2Q78.56 -2.12 76.64 -0.8Q74.72 0.52 71.64 0.52L71.64 0.52Q68.32 0.52 65.92 -0.96Q63.52 -2.44 62.22 -4.88Q60.92 -7.32 60.92 -10.2L60.92 -10.2Q60.92 -12.96 61.74 -14.94Q62.56 -16.92 63.92 -18.14Q65.28 -19.36 66.98 -19.94Q68.68 -20.52 70.44 -20.52L70.44 -20.52Q72.44 -20.52 73.96 -19.74Q75.48 -18.96 76.54 -17.76Q77.6 -16.56 78.14 -15.22Q78.68 -13.88 78.68 -12.72L78.68 -12.72Q78.68 -12.4 78.32 -12.24L78.32 -12.24ZM66.24 -9.64L72.68 -12.88Q72.68 -14.8 71.76 -16.04Q70.84 -17.28 69.44 -17.28L69.44 -17.28Q67.8 -17.28 66.84 -15.98Q65.88 -14.68 65.88 -12.72L65.88 -12.72Q65.88 -12.12 65.94 -11.24Q66 -10.36 66.24 -9.64L66.24 -9.64ZM100.2 -6.6L101.36 -5.92Q101.72 -5.76 101.72 -5.44L101.72 -5.44Q101.72 -5.28 101.6 -5.08L101.6 -5.08L98.48 0.2Q98.28 0.52 98 0.52L98 0.52Q97.84 0.52 97.44 0.2L97.44 0.2Q97.28 0.04 97.1 0.02Q96.92 0 96.72 0L96.72 0L81.32 0Q80.72 0 80.72 -0.6L80.72 -0.6L80.72 -2.32Q80.72 -2.6 80.84 -2.76L80.84 -2.76L93.44 -17.24L89.6 -17.24Q85.6 -17.24 83.6 -13.8L83.6 -13.8L83.44 -13.52Q83.36 -13.36 83.26 -13.24Q83.16 -13.12 83 -13.12L83 -13.12Q82.88 -13.12 82.6 -13.28L82.6 -13.28L81.24 -14.08Q81.12 -14.16 81.02 -14.26Q80.92 -14.36 80.92 -14.56L80.92 -14.56Q80.92 -14.68 81.04 -14.92L81.04 -14.92L84.32 -20.16Q84.52 -20.52 84.8 -20.52L84.8 -20.52Q85 -20.52 85.32 -20.2L85.32 -20.2Q85.48 -20.04 85.66 -20.02Q85.84 -20 86.04 -20L86.04 -20L100.84 -20Q101.36 -20 101.36 -19.64L101.36 -19.64Q101.36 -19.44 101.2 -19.28L101.2 -19.28L87.12 -2.76L90.2 -2.76Q91.6 -2.76 93.3 -2.92Q95 -3.08 96.6 -3.82Q98.2 -4.56 99.2 -6.2L99.2 -6.2L99.32 -6.4Q99.52 -6.72 99.8 -6.72L99.8 -6.72Q100.04 -6.72 100.2 -6.6L100.2 -6.6ZM114.6 -2.4L114.72 -2.4Q115.32 -2.4 115.32 -1.8L115.32 -1.8L115.32 -0.6Q115.32 0 114.64 0L114.64 0L103.32 0Q102.64 0 102.64 -0.6L102.64 -0.6L102.64 -1.8Q102.64 -2.4 103.24 -2.4L103.24 -2.4L103.32 -2.4Q104.8 -2.4 105.5 -3.5Q106.2 -4.6 106.2 -6.2L106.2 -6.2L106.2 -10.44Q106.2 -11.36 106.06 -12.28Q105.92 -13.2 105.44 -13.88Q104.96 -14.56 103.84 -14.68L103.84 -14.68Q103.36 -14.72 103.36 -15.2L103.36 -15.2L103.36 -16.56Q103.36 -16.8 103.52 -16.9Q103.68 -17 103.96 -17.08L103.96 -17.08Q107.12 -18.12 108.82 -19.22Q110.52 -20.32 111.32 -21.16L111.32 -21.16Q111.4 -21.24 111.48 -21.24L111.48 -21.24L111.6 -21.24Q111.68 -21.24 111.68 -21.16L111.68 -21.16L111.68 -6.24Q111.68 -4.64 112.4 -3.52Q113.12 -2.4 114.6 -2.4L114.6 -2.4ZM109 -29.6L109 -29.6Q110.04 -29.6 111.04 -28.6L111.04 -28.6Q112.04 -27.6 112.04 -26.6L112.04 -26.6Q112.04 -25.6 111.04 -24.6L111.04 -24.6Q110.04 -23.6 109 -23.6L109 -23.6Q108.04 -23.6 107 -24.6L107 -24.6Q106 -25.56 106 -26.6L106 -26.6Q106 -27.6 107 -28.6L107 -28.6Q108 -29.6 109 -29.6ZM136.32 -20.44L136.32 -7.4Q136.32 -5.96 136.76 -4.82Q137.2 -3.68 138.68 -3.48L138.68 -3.48Q139.16 -3.44 139.16 -2.96L139.16 -2.96L139.16 -1.64Q139.16 -1.08 138.56 -1.08L138.56 -1.08Q136.6 -1.08 135.3 -0.86Q134 -0.64 133.06 -0.3Q132.12 0.04 131.2 0.44L131.2 0.44Q131.04 0.52 130.92 0.52L130.92 0.52L130.8 0.52Q130.72 0.52 130.72 0.36L130.72 0.36Q130.72 0.2 130.8 -0.42Q130.88 -1.04 130.98 -1.82Q131.08 -2.6 131.16 -3.16L131.16 -3.16Q130.96 -2.64 130.3 -1.76Q129.64 -0.88 128.38 -0.18Q127.12 0.52 125.08 0.52L125.08 0.52Q123.72 0.52 122.18 -0.04Q120.64 -0.6 119.28 -1.84Q117.92 -3.08 117.06 -5.1Q116.2 -7.12 116.2 -10.04L116.2 -10.04Q116.2 -13.76 117.54 -16.06Q118.88 -18.36 121.02 -19.44Q123.16 -20.52 125.56 -20.52L125.56 -20.52Q127.52 -20.52 129.16 -19.92Q130.8 -19.32 132.04 -18.2L132.04 -18.2Q133.08 -18.64 133.82 -19.02Q134.56 -19.4 135.08 -19.8L135.08 -19.8Q135.28 -19.96 135.5 -20.12Q135.72 -20.28 136 -20.44L136 -20.44Q136.12 -20.52 136.2 -20.52L136.2 -20.52L136.24 -20.52Q136.32 -20.52 136.32 -20.44L136.32 -20.44ZM130.72 -5.64L130.72 -13.68Q130.6 -14.48 130.14 -15.46Q129.68 -16.44 128.76 -17.14Q127.84 -17.84 126.28 -17.84L126.28 -17.84Q124.36 -17.84 123.28 -16.9Q122.2 -15.96 121.78 -14.48Q121.36 -13 121.36 -11.32L121.36 -11.32Q121.36 -7.48 122.9 -5.24Q124.44 -3 126.88 -3L126.88 -3Q128.32 -3 129.14 -3.62Q129.96 -4.24 130.32 -4.88Q130.68 -5.52 130.72 -5.64L130.72 -5.64Z"/></g><path fill="#FBF7EE" d="M93.54 206.12L93.54 251.88Q93.54 256.04 95.1 258.9Q96.66 261.76 100.5 261.76L100.5 261.76L101.13 261.76Q102.69 261.76 102.69 263.32L102.69 263.32L102.69 266.44Q102.69 268 101.13 268L101.13 268L69.2 268Q67.64 268 67.64 266.44L67.64 266.44L67.64 263.32Q67.64 261.76 69.2 261.76L69.2 261.76L69.93 261.76Q73.88 261.76 75.39 258.9Q76.9 256.04 76.9 251.88L76.9 251.88L76.9 206.12Q76.9 201.96 75.39 199.1Q73.88 196.24 69.93 196.24L69.93 196.24L69.2 196.24Q67.64 196.24 67.64 194.68L67.64 194.68L67.64 191.56Q67.64 190 69.2 190L69.2 190L101.13 190Q102.69 190 102.69 191.56L102.69 191.56L102.69 194.68Q102.69 196.24 101.13 196.24L101.13 196.24L100.5 196.24Q96.66 196.24 95.1 199.1Q93.54 201.96 93.54 206.12L93.54 206.12ZM138.98 261.76L139.3 261.76Q140.86 261.76 140.86 263.32L140.86 263.32L140.86 266.44Q140.86 268 139.09 268L139.09 268L109.66 268Q107.89 268 107.89 266.44L107.89 266.44L107.89 263.32Q107.89 261.76 109.45 261.76L109.45 261.76L109.66 261.76Q113.5 261.76 115.32 258.9Q117.14 256.04 117.14 251.88L117.14 251.88L117.14 212.88Q117.14 209.97 116.78 207.37Q116.42 204.77 115.17 202.95Q113.92 201.13 111.01 200.82L111.01 200.82Q109.76 200.71 109.76 199.46L109.76 199.46L109.76 195.93Q109.76 195.3 110.18 195.1Q110.59 194.89 111.32 194.58L111.32 194.58Q118.7 191.87 123.12 189.53Q127.54 187.19 130.46 185.01L130.46 185.01Q130.66 184.8 130.87 184.8L130.87 184.8L131.18 184.8Q131.39 184.8 131.39 185.01L131.39 185.01L131.39 251.78Q131.39 255.94 133.26 258.85Q135.14 261.76 138.98 261.76L138.98 261.76ZM208.04 257.81L209.7 260.51Q210.02 260.93 210.02 261.45L210.02 261.45Q210.02 262.07 209.18 262.59L209.18 262.59L206.06 264.57Q203.26 266.34 199.3 267.84Q195.35 269.35 191.4 269.35L191.4 269.35Q188.28 269.35 185.52 267.9Q182.77 266.44 181.1 262.96Q179.44 259.47 179.44 253.34L179.44 253.34L179.44 234.1Q179.44 231.29 179.13 228.53Q178.82 225.78 177.2 224.01Q175.59 222.24 171.85 222.24L171.85 222.24Q170.29 222.24 170.29 220.68L170.29 220.68L170.29 217.56Q170.29 216 171.85 216L171.85 216L179.44 216L179.44 209.03Q179.44 207.68 180.38 207.16L180.38 207.16Q182.66 205.91 186.41 203.68Q190.15 201.44 193.06 198.53L193.06 198.53Q193.27 198.32 193.58 198.32L193.58 198.32L193.79 198.32Q194 198.32 194 198.63L194 198.63L194 216L207.94 216Q209.5 216 209.5 217.56L209.5 217.56L209.5 222.03Q209.5 223.59 207.94 223.59L207.94 223.59L194 223.59L194 253.34Q194 257.39 195.25 258.9Q196.5 260.41 198.37 260.41L198.37 260.41Q200.14 260.41 202.11 259.42Q204.09 258.43 205.75 257.39L205.75 257.39Q206.48 256.98 206.9 256.98L206.9 256.98Q207.52 256.98 208.04 257.81L208.04 257.81ZM273.25 217.56L273.25 246.99Q273.25 249.7 273.61 252.35Q273.98 255 275.28 256.82Q276.58 258.64 279.38 258.95L279.38 258.95Q280.22 259.06 280.37 259.42Q280.53 259.78 280.53 260.3L280.53 260.3L280.53 263.74Q280.53 265.19 279.07 265.19L279.07 265.19Q273.98 265.19 270.6 265.76Q267.22 266.34 264.77 267.22Q262.33 268.1 259.94 269.14L259.94 269.14Q259.52 269.35 259.1 269.35L259.1 269.35L258.9 269.35Q258.69 269.35 258.69 269.04L258.69 269.04Q258.69 268.73 259.05 265.87Q259.42 263.01 260.35 255.94L260.35 255.94Q258.9 258.85 256.3 261.97Q253.7 265.09 250 267.22Q246.31 269.35 241.53 269.35L241.53 269.35Q235.91 269.35 232.43 267.64Q228.94 265.92 227.07 263.06Q225.2 260.2 224.52 256.61Q223.85 253.02 223.85 249.28L223.85 249.28L223.85 232.12Q223.85 227.86 221.92 225.05Q220 222.24 216.15 222.24L216.15 222.24L215.74 222.24Q214.18 222.24 214.18 220.68L214.18 220.68L214.18 217.56Q214.18 216 215.74 216L215.74 216L236.85 216Q238.41 216 238.41 217.56L238.41 217.56L238.41 249.9Q238.41 252.71 238.93 255.05Q239.45 257.39 241.06 258.8Q242.67 260.2 245.9 260.2L245.9 260.2Q248.5 260.2 251.1 258.9Q253.7 257.6 255.72 255.57Q257.75 253.54 258.58 251.36L258.58 251.36L258.58 232.12Q258.58 227.86 256.66 225.05Q254.74 222.24 250.99 222.24L250.99 222.24L250.78 222.24Q249.22 222.24 249.22 220.68L249.22 220.68L249.22 217.56Q249.22 216 250.78 216L250.78 216L271.69 216Q273.25 216 273.25 217.56L273.25 217.56ZM308.92 214.65L308.92 214.65Q314.85 214.65 319.89 216.99Q324.94 219.33 328.58 223.33Q332.22 227.34 334.24 232.28Q336.27 237.22 336.27 242.52L336.27 242.52Q336.27 250.22 332.63 256.3Q328.99 262.38 323.06 265.87Q317.14 269.35 310.17 269.35L310.17 269.35Q304.24 269.35 299.25 267.06Q294.26 264.78 290.56 260.88Q286.87 256.98 284.84 251.93Q282.82 246.89 282.82 241.38L282.82 241.38Q282.82 233.78 286.35 227.75Q289.89 221.72 295.82 218.18Q301.74 214.65 308.92 214.65ZM313.39 260.93L313.39 260.93Q315.37 260.93 317.76 259.89Q320.15 258.85 321.97 256.25Q323.79 253.65 323.79 249.07L323.79 249.07Q323.79 245.43 322.39 241.01Q320.98 236.59 318.54 232.48Q316.1 228.38 312.82 225.72Q309.54 223.07 305.7 223.07L305.7 223.07Q301.43 223.07 298.31 226.24Q295.19 229.42 295.19 234.93L295.19 234.93Q295.19 238.46 296.6 242.94Q298 247.41 300.44 251.52Q302.89 255.62 306.22 258.28Q309.54 260.93 313.39 260.93ZM414.69 230.87L412.4 232.12Q411.78 232.43 411.36 232.43L411.36 232.43Q410.63 232.43 410.01 231.7L410.01 231.7Q405.33 225.78 400.23 223.38Q395.14 220.99 391.39 220.99L391.39 220.99Q388.69 220.99 386.4 222.14Q384.11 223.28 384.11 226.3L384.11 226.3Q384.11 228.58 385.83 230.09Q387.54 231.6 390.25 232.54Q392.95 233.47 395.76 234.2L395.76 234.2Q399.82 235.14 403.92 236.38Q408.03 237.63 411.46 239.66Q414.9 241.69 417.03 244.7Q419.16 247.72 419.16 252.3L419.16 252.3Q419.16 257.18 416.51 261.03Q413.86 264.88 408.97 267.12Q404.08 269.35 397.32 269.35L397.32 269.35Q394.1 269.35 391.03 268.57Q387.96 267.79 385.26 266.54L385.26 266.54Q384.63 266.23 384.32 266.23L384.32 266.23Q383.59 266.23 383.59 266.96L383.59 266.96Q383.59 267.17 383.8 267.79L383.8 267.79Q384.01 268.42 384.01 268.62L384.01 268.62Q384.01 269.46 382.76 269.46L382.76 269.46L379.02 269.46Q377.87 269.46 377.25 268.42L377.25 268.42L368.3 251.67Q367.99 251.05 367.99 250.74L367.99 250.74Q367.99 250.01 368.82 249.49L368.82 249.49L372.05 247.62Q372.67 247.3 372.98 247.3L372.98 247.3Q373.61 247.3 374.13 248.24L374.13 248.24Q379.22 255.83 385.31 259.06Q391.39 262.28 397.74 262.28L397.74 262.28Q407.72 262.28 407.72 256.35L407.72 256.35Q407.72 253.65 405.28 251.88Q402.83 250.11 399.24 248.97Q395.66 247.82 392.02 246.99L392.02 246.99Q385.36 245.33 381.41 243.2Q377.46 241.06 375.48 238.62Q373.5 236.18 372.83 233.73Q372.15 231.29 372.15 229L372.15 229Q372.15 222.76 376.94 218.7Q381.72 214.65 389.94 214.65L389.94 214.65Q394.82 214.65 398.57 215.95Q402.31 217.25 403.77 218.08L403.77 218.08Q404.18 218.29 404.39 218.29L404.39 218.29Q404.7 218.29 404.7 217.87L404.7 217.87Q404.7 217.56 404.39 216.62L404.39 216.62Q404.29 216.1 404.24 215.84Q404.18 215.58 404.18 215.38L404.18 215.38Q404.18 214.34 405.54 214.34L405.54 214.34L408.24 214.34Q409.59 214.34 410.01 215.48L410.01 215.48L415.21 228.69Q415.52 229.31 415.52 229.73L415.52 229.73Q415.52 230.46 414.69 230.87L414.69 230.87ZM454.21 261.76L454.52 261.76Q456.08 261.76 456.08 263.32L456.08 263.32L456.08 266.44Q456.08 268 454.31 268L454.31 268L424.88 268Q423.11 268 423.11 266.44L423.11 266.44L423.11 263.32Q423.11 261.76 424.67 261.76L424.67 261.76L424.88 261.76Q428.73 261.76 430.55 258.9Q432.37 256.04 432.37 251.88L432.37 251.88L432.37 240.86Q432.37 238.46 432 236.07Q431.64 233.68 430.39 231.91Q429.14 230.14 426.23 229.83L426.23 229.83Q424.98 229.73 424.98 228.48L424.98 228.48L424.98 224.94Q424.98 224.32 425.4 224.06Q425.82 223.8 426.54 223.59L426.54 223.59Q434.76 220.89 439.18 218.03Q443.6 215.17 445.68 212.98L445.68 212.98Q445.89 212.78 446.1 212.78L446.1 212.78L446.41 212.78Q446.62 212.78 446.62 212.98L446.62 212.98L446.62 251.78Q446.62 255.94 448.49 258.85Q450.36 261.76 454.21 261.76L454.21 261.76ZM439.65 191.04L439.65 191.04Q442.35 191.04 444.95 193.64L444.95 193.64Q447.55 196.24 447.55 198.84L447.55 198.84Q447.55 201.44 444.95 204.04L444.95 204.04Q442.35 206.64 439.65 206.64L439.65 206.64Q437.15 206.64 434.45 204.04L434.45 204.04Q431.85 201.54 431.85 198.84L431.85 198.84Q431.85 196.24 434.45 193.64L434.45 193.64Q437.05 191.04 439.65 191.04ZM495.18 257.81L496.85 260.51Q497.16 260.93 497.16 261.45L497.16 261.45Q497.16 262.07 496.33 262.59L496.33 262.59L493.21 264.57Q490.4 266.34 486.45 267.84Q482.5 269.35 478.54 269.35L478.54 269.35Q475.42 269.35 472.67 267.9Q469.91 266.44 468.25 262.96Q466.58 259.47 466.58 253.34L466.58 253.34L466.58 234.1Q466.58 231.29 466.27 228.53Q465.96 225.78 464.35 224.01Q462.74 222.24 458.99 222.24L458.99 222.24Q457.43 222.24 457.43 220.68L457.43 220.68L457.43 217.56Q457.43 216 458.99 216L458.99 216L466.58 216L466.58 209.03Q466.58 207.68 467.52 207.16L467.52 207.16Q469.81 205.91 473.55 203.68Q477.3 201.44 480.21 198.53L480.21 198.53Q480.42 198.32 480.73 198.32L480.73 198.32L480.94 198.32Q481.14 198.32 481.14 198.63L481.14 198.63L481.14 216L495.08 216Q496.64 216 496.64 217.56L496.64 217.56L496.64 222.03Q496.64 223.59 495.08 223.59L495.08 223.59L481.14 223.59L481.14 253.34Q481.14 257.39 482.39 258.9Q483.64 260.41 485.51 260.41L485.51 260.41Q487.28 260.41 489.26 259.42Q491.23 258.43 492.9 257.39L492.9 257.39Q493.62 256.98 494.04 256.98L494.04 256.98Q494.66 256.98 495.18 257.81L495.18 257.81ZM526.59 214.65L526.59 214.65Q532.52 214.65 537.56 216.99Q542.61 219.33 546.25 223.33Q549.89 227.34 551.92 232.28Q553.94 237.22 553.94 242.52L553.94 242.52Q553.94 250.22 550.3 256.3Q546.66 262.38 540.74 265.87Q534.81 269.35 527.84 269.35L527.84 269.35Q521.91 269.35 516.92 267.06Q511.93 264.78 508.24 260.88Q504.54 256.98 502.52 251.93Q500.49 246.89 500.49 241.38L500.49 241.38Q500.49 233.78 504.02 227.75Q507.56 221.72 513.49 218.18Q519.42 214.65 526.59 214.65ZM531.06 260.93L531.06 260.93Q533.04 260.93 535.43 259.89Q537.82 258.85 539.64 256.25Q541.46 253.65 541.46 249.07L541.46 249.07Q541.46 245.43 540.06 241.01Q538.66 236.59 536.21 232.48Q533.77 228.38 530.49 225.72Q527.22 223.07 523.37 223.07L523.37 223.07Q519.1 223.07 515.98 226.24Q512.86 229.42 512.86 234.93L512.86 234.93Q512.86 238.46 514.27 242.94Q515.67 247.41 518.12 251.52Q520.56 255.62 523.89 258.28Q527.22 260.93 531.06 260.93ZM615.72 261.76L616.03 261.76Q617.59 261.76 617.59 263.32L617.59 263.32L617.59 266.44Q617.59 268 615.82 268L615.82 268L586.39 268Q584.62 268 584.62 266.44L584.62 266.44L584.62 263.32Q584.62 261.76 586.18 261.76L586.18 261.76L586.39 261.76Q590.24 261.76 592.06 258.9Q593.88 256.04 593.88 251.88L593.88 251.88L593.88 240.86Q593.88 238.46 593.52 236.07Q593.15 233.68 591.9 231.91Q590.66 230.14 587.74 229.83L587.74 229.83Q586.5 229.73 586.5 228.48L586.5 228.48L586.5 224.94Q586.5 224.32 586.91 224.06Q587.33 223.8 588.06 223.59L588.06 223.59Q596.27 220.89 600.69 218.03Q605.11 215.17 607.19 212.98L607.19 212.98Q607.4 212.78 607.61 212.78L607.61 212.78L607.92 212.78Q608.13 212.78 608.13 212.98L608.13 212.98L608.13 251.78Q608.13 255.94 610 258.85Q611.87 261.76 615.72 261.76L615.72 261.76ZM601.16 191.04L601.16 191.04Q603.86 191.04 606.46 193.64L606.46 193.64Q609.06 196.24 609.06 198.84L609.06 198.84Q609.06 201.44 606.46 204.04L606.46 204.04Q603.86 206.64 601.16 206.64L601.16 206.64Q598.66 206.64 595.96 204.04L595.96 204.04Q593.36 201.54 593.36 198.84L593.36 198.84Q593.36 196.24 595.96 193.64L595.96 193.64Q598.56 191.04 601.16 191.04ZM680.62 234.1L680.62 234.1L680.62 251.88Q680.62 257.6 682.44 259.68Q684.26 261.76 687.27 261.76L687.27 261.76L688.1 261.76Q689.66 261.76 689.66 263.32L689.66 263.32L689.66 266.44Q689.66 268 688.1 268L688.1 268L660.44 268Q658.88 268 658.88 266.44L658.88 266.44L658.88 263.32Q658.88 261.76 660.44 261.76L660.44 261.76L661.17 261.76Q663.35 261.76 664.7 259.68Q666.06 257.6 666.06 251.88L666.06 251.88L666.06 234.1Q666.06 229.1 664.5 226.45Q662.94 223.8 658.57 223.8L658.57 223.8Q655.97 223.8 653.37 225.1Q650.77 226.4 648.79 228.43Q646.82 230.46 645.88 232.74L645.88 232.74L645.88 251.88Q645.88 256.04 647.7 258.9Q649.52 261.76 652.54 261.76L652.54 261.76L652.74 261.76Q654.3 261.76 654.3 263.32L654.3 263.32L654.3 266.44Q654.3 268 652.74 268L652.74 268L623.52 268Q621.96 268 621.96 266.44L621.96 266.44L621.96 263.32Q621.96 261.76 623.52 261.76L623.52 261.76L623.73 261.76Q627.58 261.76 629.45 258.9Q631.32 256.04 631.32 251.88L631.32 251.88L631.32 238.78Q631.32 235.97 630.96 233.37Q630.59 230.77 629.29 228.95Q627.99 227.13 625.08 226.82L625.08 226.82Q623.94 226.71 623.94 225.46L623.94 225.46L623.94 221.93Q623.94 220.89 625.39 220.58L625.39 220.58Q632.88 219.43 638.24 217.04Q643.59 214.65 645.67 213.19L645.67 213.19Q646.19 212.78 646.5 212.78L646.5 212.78L646.61 212.78Q646.82 212.78 646.82 212.98L646.82 212.98Q646.82 213.19 646.71 213.82L646.71 213.82L644.94 226.61Q646.4 224.22 648.79 221.46Q651.18 218.7 654.72 216.68Q658.26 214.65 662.94 214.65L662.94 214.65Q668.55 214.65 672.09 216.31Q675.62 217.98 677.44 220.78Q679.26 223.59 679.94 227.02Q680.62 230.46 680.62 234.1Z"/><path fill="#FBF7EE" d="M80.33 341.99L69.41 339.5Q68.26 339.29 67.74 338.77Q67.22 338.25 66.81 337.52L66.81 337.52Q66.08 335.75 66.08 333.78L66.08 333.78Q66.08 330.03 68.78 326.7Q71.49 323.38 76.32 321.3Q81.16 319.22 87.61 319.22L87.61 319.22Q98.11 319.22 103.73 323.01Q109.34 326.81 109.34 334.5L109.34 334.5Q109.34 340.95 105.5 345.01Q101.65 349.06 95.51 351.35L95.51 351.35Q104.46 352.7 110.18 357.75Q115.9 362.79 115.9 371.42L115.9 371.42Q115.9 379.64 111.22 385.15Q106.54 390.66 98.58 393.37Q90.62 396.07 80.85 396.07L80.85 396.07Q76.06 396.07 71.18 395.45L71.18 395.45Q69.62 395.34 69.51 393.99L69.51 393.99L68.89 389.21Q68.78 388.58 69.3 388.17Q69.82 387.75 70.55 387.96L70.55 387.96Q72.94 388.48 75.23 388.74Q77.52 389 79.81 389L79.81 389Q85.53 389 90.05 387.13Q94.58 385.26 97.23 381.3Q99.88 377.35 99.88 371.11L99.88 371.11Q99.88 363.73 95.98 360.71Q92.08 357.7 85.63 357.7L85.63 357.7Q82.1 357.7 80.02 358.16Q77.94 358.63 76.79 358.63L76.79 358.63Q75.54 358.63 75.34 357.38L75.34 357.38L74.71 353.64Q74.61 353.12 75.08 352.76Q75.54 352.39 76.06 352.29L76.06 352.29Q84.9 349.48 89.64 344.75Q94.37 340.02 94.37 334.4L94.37 334.4Q94.37 329.82 92.44 327.54Q90.52 325.25 87.09 325.25L87.09 325.25Q84.18 325.25 81.52 326.81Q78.87 328.37 78.87 332.32L78.87 332.32Q78.87 335.23 80.12 337.73Q81.37 340.22 81.37 341.06L81.37 341.06Q81.37 342.3 80.33 341.99L80.33 341.99ZM190.05 322.54L197.64 320.88Q198.06 320.78 198.47 320.78L198.47 320.78Q198.99 320.78 198.99 322.34L198.99 322.34Q198.99 327.43 197.07 330.24Q195.14 333.05 191.61 333.05L191.61 333.05Q194.1 337.21 194.1 342.62L194.1 342.62Q194.1 348.13 191.35 352.65Q188.59 357.18 183.5 359.83Q178.4 362.48 171.22 362.48L171.22 362.48Q163.94 362.48 158.64 359.57L158.64 359.57Q157.29 360.61 157.29 362.17L157.29 362.17Q157.29 363.73 158.43 364.82Q159.58 365.91 162.85 366.59Q166.13 367.26 172.47 367.58L172.47 367.58Q177.05 367.78 181.36 368.51Q185.68 369.24 189.11 370.85Q192.54 372.46 194.57 375.38Q196.6 378.29 196.6 382.97L196.6 382.97Q196.6 387.23 194.36 390.2Q192.13 393.16 188.33 394.93Q184.54 396.7 179.96 397.53Q175.38 398.36 170.7 398.36L170.7 398.36Q164.36 398.36 159 397.01Q153.65 395.66 150.37 392.85Q147.1 390.04 147.1 385.67L147.1 385.67Q147.1 382.24 148.92 379.8Q150.74 377.35 153.34 375.9L153.34 375.9Q148.03 372.57 148.03 366.43L148.03 366.43Q148.03 362.9 149.85 360.4Q151.67 357.9 154.48 356.76L154.48 356.76Q148.34 351.14 148.34 342.62L148.34 342.62Q148.34 337.1 151.1 332.58Q153.86 328.06 159 325.35Q164.15 322.65 171.22 322.65L171.22 322.65Q175.59 322.65 179.18 323.74Q182.77 324.83 185.58 326.7L185.58 326.7Q186.1 327.02 186.46 327.07Q186.82 327.12 187.03 327.12L187.03 327.12Q187.86 327.12 188.38 326.55Q188.9 325.98 188.9 324.42L188.9 324.42L188.9 324.1Q188.9 322.75 190.05 322.54L190.05 322.54ZM171.22 328.89L171.22 328.89Q167.27 328.89 165.04 331.07Q162.8 333.26 161.92 336.43Q161.03 339.6 161.03 342.62L161.03 342.62Q161.03 345.63 161.92 348.8Q162.8 351.98 165.04 354.16Q167.27 356.34 171.22 356.34L171.22 356.34Q175.18 356.34 177.2 354.16Q179.23 351.98 179.96 348.8Q180.69 345.63 180.69 342.62L180.69 342.62Q180.69 339.6 179.96 336.43Q179.23 333.26 177.2 331.07Q175.18 328.89 171.22 328.89ZM170.81 391.18L170.81 391.18Q178.5 391.18 182.61 389.73Q186.72 388.27 186.72 385.88L186.72 385.88Q186.72 382.55 182.35 381.46Q177.98 380.37 170.08 379.95L170.08 379.95Q164.46 379.64 160.41 378.7L160.41 378.7Q157.5 380.68 157.5 384.22L157.5 384.22Q157.5 385.78 158.64 387.39Q159.78 389 162.7 390.09Q165.61 391.18 170.81 391.18ZM232.48 369.76L232.79 369.76Q234.35 369.76 234.35 371.32L234.35 371.32L234.35 374.44Q234.35 376 232.58 376L232.58 376L203.15 376Q201.38 376 201.38 374.44L201.38 374.44L201.38 371.32Q201.38 369.76 202.94 369.76L202.94 369.76L203.15 369.76Q207 369.76 208.82 366.9Q210.64 364.04 210.64 359.88L210.64 359.88L210.64 348.86Q210.64 346.46 210.28 344.07Q209.91 341.68 208.66 339.91Q207.42 338.14 204.5 337.83L204.5 337.83Q203.26 337.73 203.26 336.48L203.26 336.48L203.26 332.94Q203.26 332.32 203.67 332.06Q204.09 331.8 204.82 331.59L204.82 331.59Q213.03 328.89 217.45 326.03Q221.87 323.17 223.95 320.98L223.95 320.98Q224.16 320.78 224.37 320.78L224.37 320.78L224.68 320.78Q224.89 320.78 224.89 320.98L224.89 320.98L224.89 359.78Q224.89 363.94 226.76 366.85Q228.63 369.76 232.48 369.76L232.48 369.76ZM217.92 299.04L217.92 299.04Q220.62 299.04 223.22 301.64L223.22 301.64Q225.82 304.24 225.82 306.84L225.82 306.84Q225.82 309.44 223.22 312.04L223.22 312.04Q220.62 314.64 217.92 314.64L217.92 314.64Q215.42 314.64 212.72 312.04L212.72 312.04Q210.12 309.54 210.12 306.84L210.12 306.84Q210.12 304.24 212.72 301.64L212.72 301.64Q215.32 299.04 217.92 299.04ZM262.74 322.65L262.74 322.65Q268.67 322.65 273.72 324.99Q278.76 327.33 282.4 331.33Q286.04 335.34 288.07 340.28Q290.1 345.22 290.1 350.52L290.1 350.52Q290.1 358.22 286.46 364.3Q282.82 370.38 276.89 373.87Q270.96 377.35 263.99 377.35L263.99 377.35Q258.06 377.35 253.07 375.06Q248.08 372.78 244.39 368.88Q240.7 364.98 238.67 359.93Q236.64 354.89 236.64 349.38L236.64 349.38Q236.64 341.78 240.18 335.75Q243.71 329.72 249.64 326.18Q255.57 322.65 262.74 322.65ZM267.22 368.93L267.22 368.93Q269.19 368.93 271.58 367.89Q273.98 366.85 275.8 364.25Q277.62 361.65 277.62 357.07L277.62 357.07Q277.62 353.43 276.21 349.01Q274.81 344.59 272.36 340.48Q269.92 336.38 266.64 333.72Q263.37 331.07 259.52 331.07L259.52 331.07Q255.26 331.07 252.14 334.24Q249.02 337.42 249.02 342.93L249.02 342.93Q249.02 346.46 250.42 350.94Q251.82 355.41 254.27 359.52Q256.71 363.62 260.04 366.28Q263.37 368.93 267.22 368.93ZM316.2 334.92L316.2 334.92Q319.01 328.89 324 325.77Q328.99 322.65 334.5 322.65L334.5 322.65Q339.39 322.65 342.82 325.35Q346.26 328.06 346.26 333.36L346.26 333.36Q346.26 335.65 345.84 337.42Q345.42 339.18 343.55 340.02L343.55 340.02L333.78 343.97Q333.15 344.18 332.84 344.18L332.84 344.18Q331.9 344.18 331.9 343.24L331.9 343.24Q331.9 342.93 332.11 342.3L332.11 342.3Q332.74 340.85 332.89 339.5Q333.05 338.14 333.05 337.1L333.05 337.1Q333.05 334.3 331.64 333Q330.24 331.7 328.16 331.7L328.16 331.7Q325.77 331.7 323.69 333.15Q321.61 334.61 320.05 336.69Q318.49 338.77 317.76 340.74L317.76 340.74L317.76 359.88Q317.76 364.04 319.63 366.9Q321.5 369.76 325.35 369.76L325.35 369.76L325.56 369.76Q327.12 369.76 327.12 371.32L327.12 371.32L327.12 374.44Q327.12 376 325.56 376L325.56 376L295.3 376Q293.74 376 293.74 374.44L293.74 374.44L293.74 371.32Q293.74 369.76 295.3 369.76L295.3 369.76L295.5 369.76Q299.35 369.76 301.22 366.9Q303.1 364.04 303.1 359.88L303.1 359.88L303.1 346.78Q303.1 343.97 302.73 341.37Q302.37 338.77 301.12 336.95Q299.87 335.13 296.96 334.82L296.96 334.82Q295.71 334.71 295.71 333.46L295.71 333.46L295.71 329.93Q295.71 328.89 297.27 328.58L297.27 328.58Q304.66 327.43 310.22 324.94Q315.78 322.44 317.76 320.98L317.76 320.98Q318.07 320.78 318.28 320.78L318.28 320.78L318.49 320.78Q318.7 320.78 318.7 320.98L318.7 320.98Q318.7 321.09 318.44 322.54Q318.18 324 317.81 326.24Q317.45 328.47 316.98 330.81Q316.51 333.15 316.2 334.92ZM407.2 342.1L407.2 342.1L407.2 359.88Q407.2 365.6 409.02 367.68Q410.84 369.76 413.86 369.76L413.86 369.76L414.69 369.76Q416.25 369.76 416.25 371.32L416.25 371.32L416.25 374.44Q416.25 376 414.69 376L414.69 376L387.02 376Q385.46 376 385.46 374.44L385.46 374.44L385.46 371.32Q385.46 369.76 387.02 369.76L387.02 369.76L387.75 369.76Q389.94 369.76 391.29 367.68Q392.64 365.6 392.64 359.88L392.64 359.88L392.64 342.1Q392.64 337.1 391.08 334.45Q389.52 331.8 385.15 331.8L385.15 331.8Q382.55 331.8 379.95 333.1Q377.35 334.4 375.38 336.43Q373.4 338.46 372.46 340.74L372.46 340.74L372.46 359.88Q372.46 364.04 374.28 366.9Q376.1 369.76 379.12 369.76L379.12 369.76L379.33 369.76Q380.89 369.76 380.89 371.32L380.89 371.32L380.89 374.44Q380.89 376 379.33 376L379.33 376L350.1 376Q348.54 376 348.54 374.44L348.54 374.44L348.54 371.32Q348.54 369.76 350.1 369.76L350.1 369.76L350.31 369.76Q354.16 369.76 356.03 366.9Q357.9 364.04 357.9 359.88L357.9 359.88L357.9 346.78Q357.9 343.97 357.54 341.37Q357.18 338.77 355.88 336.95Q354.58 335.13 351.66 334.82L351.66 334.82Q350.52 334.71 350.52 333.46L350.52 333.46L350.52 329.93Q350.52 328.89 351.98 328.58L351.98 328.58Q359.46 327.43 364.82 325.04Q370.18 322.65 372.26 321.19L372.26 321.19Q372.78 320.78 373.09 320.78L373.09 320.78L373.19 320.78Q373.4 320.78 373.4 320.98L373.4 320.98Q373.4 321.19 373.3 321.82L373.3 321.82L371.53 334.61Q372.98 332.22 375.38 329.46Q377.77 326.7 381.3 324.68Q384.84 322.65 389.52 322.65L389.52 322.65Q395.14 322.65 398.67 324.31Q402.21 325.98 404.03 328.78Q405.85 331.59 406.52 335.02Q407.2 338.46 407.2 342.1ZM451.5 369.76L451.82 369.76Q453.38 369.76 453.38 371.32L453.38 371.32L453.38 374.44Q453.38 376 451.61 376L451.61 376L422.18 376Q420.41 376 420.41 374.44L420.41 374.44L420.41 371.32Q420.41 369.76 421.97 369.76L421.97 369.76L422.18 369.76Q426.02 369.76 427.84 366.9Q429.66 364.04 429.66 359.88L429.66 359.88L429.66 348.86Q429.66 346.46 429.3 344.07Q428.94 341.68 427.69 339.91Q426.44 338.14 423.53 337.83L423.53 337.83Q422.28 337.73 422.28 336.48L422.28 336.48L422.28 332.94Q422.28 332.32 422.7 332.06Q423.11 331.8 423.84 331.59L423.84 331.59Q432.06 328.89 436.48 326.03Q440.9 323.17 442.98 320.98L442.98 320.98Q443.18 320.78 443.39 320.78L443.39 320.78L443.7 320.78Q443.91 320.78 443.91 320.98L443.91 320.98L443.91 359.78Q443.91 363.94 445.78 366.85Q447.66 369.76 451.5 369.76L451.5 369.76ZM436.94 299.04L436.94 299.04Q439.65 299.04 442.25 301.64L442.25 301.64Q444.85 304.24 444.85 306.84L444.85 306.84Q444.85 309.44 442.25 312.04L442.25 312.04Q439.65 314.64 436.94 314.64L436.94 314.64Q434.45 314.64 431.74 312.04L431.74 312.04Q429.14 309.54 429.14 306.84L429.14 306.84Q429.14 304.24 431.74 301.64L431.74 301.64Q434.34 299.04 436.94 299.04ZM463.05 363.83L467.21 359.78Q469.18 357.8 471.16 357.8L471.16 357.8Q473.24 357.8 475.22 359.78L475.22 359.78L479.27 363.83Q481.25 365.81 481.25 367.89L481.25 367.89Q481.25 369.97 479.27 371.94L479.27 371.94L475.22 376Q473.24 377.98 471.16 377.98L471.16 377.98Q469.18 377.98 467.21 376L467.21 376L463.05 371.94Q461.18 370.07 461.18 367.89L461.18 367.89Q461.18 365.7 463.05 363.83L463.05 363.83Z"/><path fill="#E3EEE7" d="M71.27 478L66.16 478L66.16 453.95L74.19 453.95L79.44 471.66L84.77 453.95L92.73 453.95L92.73 478L87.58 478L87.58 458.81L81.64 478L77.21 478L71.27 458.81L71.27 478ZM101.94 478.43L101.94 478.43Q100.25 478.43 98.85 477.8Q97.44 477.17 96.62 476Q95.79 474.83 95.79 473.21L95.79 473.21Q95.79 471.09 97.26 469.79Q98.74 468.5 101.48 467.79Q104.21 467.09 107.85 466.8L107.85 466.8L107.85 466.3Q107.85 464.68 106.98 463.91Q106.12 463.13 104.5 463.13L104.5 463.13Q103.28 463.13 102.39 463.71Q101.51 464.28 101.22 465.4L101.22 465.4L96.94 463.89Q97.77 462.05 99.8 460.86Q101.84 459.68 104.72 459.68L104.72 459.68Q108.57 459.68 110.6 461.39Q112.64 463.1 112.64 467.09L112.64 467.09L112.64 471.05Q112.64 472.28 112.71 473.59Q112.78 474.9 112.92 476.06Q113.07 477.21 113.25 478L113.25 478L108.6 478L107.92 475.77Q106.98 477.17 105.45 477.8Q103.92 478.43 101.94 478.43ZM103.74 474.94L103.74 474.94Q104.9 474.94 105.83 474.54Q106.77 474.15 107.31 473.21Q107.85 472.28 107.85 470.66L107.85 470.66L107.85 469.9Q104.57 470.15 102.77 470.8Q100.97 471.45 100.97 472.89L100.97 472.89Q100.97 473.82 101.75 474.38Q102.52 474.94 103.74 474.94ZM123.8 478.47L123.8 478.47Q121.78 478.47 120.07 477.93Q118.36 477.39 117.1 476.38Q115.84 475.37 115.19 473.9L115.19 473.9L119.51 472.35Q119.84 473.5 121.1 474.13Q122.36 474.76 123.87 474.76L123.87 474.76Q125.24 474.76 126.28 474.27Q127.32 473.79 127.32 472.85L127.32 472.85Q127.32 472.17 126.68 471.72Q126.03 471.27 124.41 470.98L124.41 470.98L121.53 470.48Q119.84 470.15 118.56 469.5Q117.28 468.86 116.54 467.81Q115.8 466.77 115.8 465.29L115.8 465.29Q115.8 463.46 116.92 462.2Q118.04 460.94 119.85 460.31Q121.67 459.68 123.76 459.68L123.76 459.68Q126.28 459.68 128.46 460.61Q130.64 461.55 131.64 463.74L131.64 463.74L127.32 465.29Q126.93 464.32 125.96 463.83Q124.98 463.35 123.62 463.35L123.62 463.35Q122.18 463.35 121.38 463.82Q120.59 464.28 120.59 465.04L120.59 465.04Q120.59 465.69 121.13 466.05Q121.67 466.41 122.93 466.66L122.93 466.66L125.92 467.2Q128.04 467.6 129.43 468.23Q130.82 468.86 131.5 469.88Q132.18 470.91 132.18 472.53L132.18 472.53Q132.18 474.47 131.05 475.8Q129.92 477.14 128.03 477.8Q126.14 478.47 123.8 478.47ZM142.08 478.47L142.08 478.47Q140.07 478.47 138.36 477.93Q136.65 477.39 135.39 476.38Q134.13 475.37 133.48 473.9L133.48 473.9L137.8 472.35Q138.12 473.5 139.38 474.13Q140.64 474.76 142.16 474.76L142.16 474.76Q143.52 474.76 144.57 474.27Q145.61 473.79 145.61 472.85L145.61 472.85Q145.61 472.17 144.96 471.72Q144.32 471.27 142.7 470.98L142.7 470.98L139.82 470.48Q138.12 470.15 136.85 469.5Q135.57 468.86 134.83 467.81Q134.09 466.77 134.09 465.29L134.09 465.29Q134.09 463.46 135.21 462.2Q136.32 460.94 138.14 460.31Q139.96 459.68 142.05 459.68L142.05 459.68Q144.57 459.68 146.75 460.61Q148.92 461.55 149.93 463.74L149.93 463.74L145.61 465.29Q145.22 464.32 144.24 463.83Q143.27 463.35 141.9 463.35L141.9 463.35Q140.46 463.35 139.67 463.82Q138.88 464.28 138.88 465.04L138.88 465.04Q138.88 465.69 139.42 466.05Q139.96 466.41 141.22 466.66L141.22 466.66L144.21 467.2Q146.33 467.6 147.72 468.23Q149.1 468.86 149.79 469.88Q150.47 470.91 150.47 472.53L150.47 472.53Q150.47 474.47 149.34 475.8Q148.2 477.14 146.31 477.8Q144.42 478.47 142.08 478.47ZM159.76 478L154.72 478L154.72 463.96L151.84 463.96L151.84 460.14L159.76 460.14L159.76 478ZM156.99 457.12L156.99 457.12Q155.73 457.12 154.83 456.22Q153.93 455.32 153.93 454.06L153.93 454.06Q153.93 452.76 154.83 451.88Q155.73 451 156.99 451L156.99 451Q158.28 451 159.17 451.88Q160.05 452.76 160.05 454.06L160.05 454.06Q160.05 455.32 159.15 456.22Q158.25 457.12 156.99 457.12ZM168.94 478L163.94 478L163.94 460.14L168.22 460.14L168.94 462.59Q169.34 461.87 170.09 461.22Q170.85 460.58 171.93 460.13Q173.01 459.68 174.34 459.68L174.34 459.68Q176.43 459.68 177.71 460.45Q178.98 461.22 179.6 462.7L179.6 462.7Q180.64 461.19 182.22 460.43Q183.81 459.68 185.68 459.68L185.68 459.68Q187.95 459.68 189.24 460.54Q190.54 461.4 191.1 463.06Q191.66 464.72 191.66 467.06L191.66 467.06L191.66 478L186.65 478L186.65 468.32Q186.65 467.06 186.47 465.98Q186.29 464.9 185.68 464.25Q185.07 463.6 183.66 463.6L183.66 463.6Q181.97 463.6 181.13 464.84Q180.28 466.08 180.28 468.53L180.28 468.53L180.28 478L175.24 478L175.24 468.32Q175.24 467.06 175.1 465.98Q174.95 464.9 174.34 464.25Q173.73 463.6 172.36 463.6L172.36 463.6Q171.21 463.6 170.45 464.19Q169.7 464.79 169.32 465.89Q168.94 466.98 168.94 468.6L168.94 468.6L168.94 478ZM204 478.43L204 478.43Q202.17 478.43 200.51 477.87Q198.86 477.32 197.54 476.16Q196.23 475.01 195.47 473.25Q194.72 471.48 194.72 469.07L194.72 469.07Q194.72 466.62 195.47 464.86Q196.23 463.1 197.54 461.94Q198.86 460.79 200.51 460.23Q202.17 459.68 204 459.68L204 459.68Q205.8 459.68 207.46 460.23Q209.12 460.79 210.43 461.94Q211.74 463.1 212.52 464.86Q213.29 466.62 213.29 469.07L213.29 469.07Q213.29 471.48 212.52 473.25Q211.74 475.01 210.43 476.16Q209.12 477.32 207.46 477.87Q205.8 478.43 204 478.43ZM204 474.47L204 474.47Q205.12 474.47 206.07 473.95Q207.03 473.43 207.59 472.24Q208.14 471.05 208.14 469.07L208.14 469.07Q208.14 467.06 207.59 465.87Q207.03 464.68 206.07 464.16Q205.12 463.64 204 463.64L204 463.64Q202.85 463.64 201.92 464.16Q200.98 464.68 200.4 465.87Q199.83 467.06 199.83 469.07L199.83 469.07Q199.83 471.05 200.4 472.24Q200.98 473.43 201.92 473.95Q202.85 474.47 204 474.47ZM236.19 478.43L236.19 478.43Q234.03 478.43 232.25 477.78Q230.46 477.14 229.19 475.89Q227.91 474.65 227.19 472.92L227.19 472.92L231.62 471.34Q232.12 473.14 233.27 473.9Q234.42 474.65 235.94 474.65L235.94 474.65Q237.23 474.65 238.28 474.11Q239.32 473.57 239.91 472.56Q240.51 471.56 240.51 470.04L240.51 470.04Q240.51 468.5 239.86 467.47Q239.21 466.44 238.2 465.96Q237.2 465.47 236.04 465.47L236.04 465.47Q235.11 465.47 234.32 465.78Q233.52 466.08 232.93 466.61Q232.34 467.13 231.94 467.88L231.94 467.88L227.44 466.26L228.95 453.95L244.61 453.95L244.61 458.13L233.09 458.13L232.48 463.06Q233.34 462.38 234.69 462.03Q236.04 461.69 237.34 461.69L237.34 461.69Q239.5 461.69 241.41 462.63Q243.32 463.56 244.5 465.42Q245.69 467.27 245.69 470.04L245.69 470.04Q245.69 472.78 244.36 474.65Q243.03 476.52 240.87 477.48Q238.71 478.43 236.19 478.43ZM259.34 478.43L259.34 478.43Q256.02 478.43 253.76 476.92Q251.49 475.41 250.34 472.6Q249.18 469.79 249.18 465.94L249.18 465.94Q249.18 462.05 250.34 459.26Q251.49 456.47 253.76 455Q256.02 453.52 259.34 453.52L259.34 453.52Q262.65 453.52 264.9 455Q267.15 456.47 268.32 459.26Q269.49 462.05 269.49 465.94L269.49 465.94Q269.49 469.79 268.32 472.6Q267.15 475.41 264.9 476.92Q262.65 478.43 259.34 478.43ZM259.34 474.62L259.34 474.62Q260.31 474.62 261.12 474.27Q261.93 473.93 262.54 473.25L262.54 473.25L254.73 462.05Q254.51 462.92 254.44 463.91Q254.37 464.9 254.37 465.94L254.37 465.94Q254.37 469 254.96 470.93Q255.56 472.85 256.67 473.73Q257.79 474.62 259.34 474.62ZM256.2 458.67L256.2 458.67L263.98 469.68Q264.12 468.89 264.21 467.96Q264.3 467.02 264.3 465.94L264.3 465.94Q264.3 464.25 264.05 462.72Q263.8 461.19 263.22 459.96Q262.65 458.74 261.69 458.02Q260.74 457.3 259.34 457.3L259.34 457.3Q258.33 457.3 257.55 457.64Q256.78 457.98 256.2 458.67ZM283.06 478.43L283.06 478.43Q279.75 478.43 277.48 476.92Q275.21 475.41 274.06 472.6Q272.91 469.79 272.91 465.94L272.91 465.94Q272.91 462.05 274.06 459.26Q275.21 456.47 277.48 455Q279.75 453.52 283.06 453.52L283.06 453.52Q286.37 453.52 288.62 455Q290.87 456.47 292.04 459.26Q293.21 462.05 293.21 465.94L293.21 465.94Q293.21 469.79 292.04 472.6Q290.87 475.41 288.62 476.92Q286.37 478.43 283.06 478.43ZM283.06 474.62L283.06 474.62Q284.03 474.62 284.84 474.27Q285.65 473.93 286.26 473.25L286.26 473.25L278.45 462.05Q278.24 462.92 278.16 463.91Q278.09 464.9 278.09 465.94L278.09 465.94Q278.09 469 278.69 470.93Q279.28 472.85 280.4 473.73Q281.51 474.62 283.06 474.62ZM279.93 458.67L279.93 458.67L287.7 469.68Q287.85 468.89 287.94 467.96Q288.03 467.02 288.03 465.94L288.03 465.94Q288.03 464.25 287.78 462.72Q287.52 461.19 286.95 459.96Q286.37 458.74 285.42 458.02Q284.46 457.3 283.06 457.3L283.06 457.3Q282.05 457.3 281.28 457.64Q280.5 457.98 279.93 458.67ZM320.28 478.43L320.28 478.43Q317.37 478.43 315.24 477.26Q313.12 476.09 311.81 474.09Q310.49 472.1 309.95 469.61L309.95 469.61L306.42 469.61L307.76 467.13L309.63 467.13Q309.59 466.52 309.59 465.92Q309.59 465.33 309.63 464.75L309.63 464.75L306.39 464.75L307.76 462.23L309.99 462.23Q310.64 459.32 312.18 457.39Q313.73 455.46 315.87 454.49Q318.02 453.52 320.46 453.52L320.46 453.52Q323.49 453.52 325.77 455.01Q328.06 456.51 329.28 459.06L329.28 459.06L325 460.65Q324.32 459.24 323.04 458.54Q321.76 457.84 320.28 457.84L320.28 457.84Q318.48 457.84 317.12 458.97Q315.75 460.11 315.1 462.23L315.1 462.23L322.23 462.23L320.86 464.75L314.67 464.75Q314.63 465.33 314.63 465.92Q314.63 466.52 314.67 467.13L314.67 467.13L319.56 467.13L318.2 469.61L315.14 469.61Q315.75 471.74 317.12 472.92Q318.48 474.11 320.43 474.11L320.43 474.11Q321.76 474.11 323.09 473.46Q324.42 472.82 325.14 471.34L325.14 471.34L329.39 472.92Q328.13 475.48 325.74 476.96Q323.34 478.43 320.28 478.43ZM355.38 478L343.43 478L343.43 474.15L346.78 474.15L346.78 457.8L343.43 457.8L343.43 453.95L355.38 453.95L355.38 457.8L352.04 457.8L352.04 474.15L355.38 474.15L355.38 478ZM371.66 478L365.57 478L357.4 453.95L362.91 453.95L368.6 472.1L374.32 453.95L379.86 453.95L371.66 478ZM384.4 478L378.71 478L387.82 453.95L393.62 453.95L402.69 478L397 478L395.45 473.54L385.95 473.54L384.4 478ZM390.66 459.46L387.35 469.25L394.01 469.25L390.66 459.46ZM422.45 478L417.41 478L417.41 463.96L414.53 463.96L414.53 460.14L422.45 460.14L422.45 478ZM419.68 457.12L419.68 457.12Q418.42 457.12 417.52 456.22Q416.62 455.32 416.62 454.06L416.62 454.06Q416.62 452.76 417.52 451.88Q418.42 451 419.68 451L419.68 451Q420.98 451 421.86 451.88Q422.74 452.76 422.74 454.06L422.74 454.06Q422.74 455.32 421.84 456.22Q420.94 457.12 419.68 457.12ZM431.63 478L426.63 478L426.63 460.14L430.91 460.14L431.63 462.59Q432.03 461.87 432.8 461.22Q433.58 460.58 434.67 460.13Q435.77 459.68 437.18 459.68L437.18 459.68Q439.44 459.68 440.76 460.54Q442.07 461.4 442.63 463.06Q443.19 464.72 443.19 467.06L443.19 467.06L443.19 478L438.15 478L438.15 468.32Q438.15 467.06 437.99 465.98Q437.82 464.9 437.21 464.25Q436.6 463.6 435.2 463.6L435.2 463.6Q433.4 463.6 432.51 464.9Q431.63 466.19 431.63 468.71L431.63 468.71L431.63 478ZM455.18 478.43L455.18 478.43Q452.3 478.43 450.3 477.24Q448.3 476.06 447.26 473.91Q446.21 471.77 446.21 469L446.21 469Q446.21 466.23 447.35 464.12Q448.48 462.02 450.51 460.85Q452.55 459.68 455.25 459.68L455.25 459.68Q456.8 459.68 458.29 460.13Q459.78 460.58 461.03 461.58Q462.27 462.59 463.06 464.25L463.06 464.25L458.81 465.76Q458.38 464.64 457.48 464.14Q456.58 463.64 455.46 463.64L455.46 463.64Q454.42 463.64 453.47 464.16Q452.51 464.68 451.92 465.87Q451.32 467.06 451.32 469.04L451.32 469.04Q451.32 471.02 451.94 472.22Q452.55 473.43 453.48 473.95Q454.42 474.47 455.46 474.47L455.46 474.47Q456.69 474.47 457.53 473.99Q458.38 473.5 458.88 472.67L458.88 472.67L463.02 474.18Q462.16 475.7 460.88 476.65Q459.6 477.6 458.13 478.02Q456.65 478.43 455.18 478.43ZM474.94 478L471.74 478Q469.65 478 468.42 477.62Q467.2 477.24 466.66 476.18Q466.12 475.12 466.12 473.1L466.12 473.1L466.12 452.51L471.16 452.51L471.16 471.88Q471.16 473.1 471.63 473.48Q472.1 473.86 473.46 473.86L473.46 473.86L474.94 473.86L474.94 478ZM483.72 478.43L483.72 478.43Q481.42 478.43 480.09 477.55Q478.76 476.67 478.2 474.99Q477.64 473.32 477.64 470.98L477.64 470.98L477.64 460.14L482.64 460.14L482.64 469.72Q482.64 470.98 482.79 472.1Q482.93 473.21 483.56 473.84Q484.19 474.47 485.56 474.47L485.56 474.47Q487.36 474.47 488.17 473.32Q488.98 472.17 488.98 469.61L488.98 469.61L488.98 460.14L494.02 460.14L494.02 478L489.74 478L488.98 475.48Q488.19 476.78 487 477.6Q485.81 478.43 483.72 478.43ZM505.36 478.47L505.36 478.47Q503.34 478.47 501.63 477.93Q499.92 477.39 498.66 476.38Q497.4 475.37 496.76 473.9L496.76 473.9L501.08 472.35Q501.4 473.5 502.66 474.13Q503.92 474.76 505.43 474.76L505.43 474.76Q506.8 474.76 507.84 474.27Q508.89 473.79 508.89 472.85L508.89 472.85Q508.89 472.17 508.24 471.72Q507.59 471.27 505.97 470.98L505.97 470.98L503.09 470.48Q501.4 470.15 500.12 469.5Q498.84 468.86 498.11 467.81Q497.37 466.77 497.37 465.29L497.37 465.29Q497.37 463.46 498.48 462.2Q499.6 460.94 501.42 460.31Q503.24 459.68 505.32 459.68L505.32 459.68Q507.84 459.68 510.02 460.61Q512.2 461.55 513.21 463.74L513.21 463.74L508.89 465.29Q508.49 464.32 507.52 463.83Q506.55 463.35 505.18 463.35L505.18 463.35Q503.74 463.35 502.95 463.82Q502.16 464.28 502.16 465.04L502.16 465.04Q502.16 465.69 502.7 466.05Q503.24 466.41 504.5 466.66L504.5 466.66L507.48 467.2Q509.61 467.6 510.99 468.23Q512.38 468.86 513.06 469.88Q513.75 470.91 513.75 472.53L513.75 472.53Q513.75 474.47 512.61 475.8Q511.48 477.14 509.59 477.8Q507.7 478.47 505.36 478.47ZM521.42 478.43L521.42 478.43Q519.72 478.43 518.32 477.8Q516.92 477.17 516.09 476Q515.26 474.83 515.26 473.21L515.26 473.21Q515.26 471.09 516.74 469.79Q518.21 468.5 520.95 467.79Q523.68 467.09 527.32 466.8L527.32 466.8L527.32 466.3Q527.32 464.68 526.46 463.91Q525.59 463.13 523.97 463.13L523.97 463.13Q522.75 463.13 521.87 463.71Q520.98 464.28 520.7 465.4L520.7 465.4L516.41 463.89Q517.24 462.05 519.27 460.86Q521.31 459.68 524.19 459.68L524.19 459.68Q528.04 459.68 530.07 461.39Q532.11 463.1 532.11 467.09L532.11 467.09L532.11 471.05Q532.11 472.28 532.18 473.59Q532.25 474.9 532.4 476.06Q532.54 477.21 532.72 478L532.72 478L528.08 478L527.39 475.77Q526.46 477.17 524.93 477.8Q523.4 478.43 521.42 478.43ZM523.22 474.94L523.22 474.94Q524.37 474.94 525.3 474.54Q526.24 474.15 526.78 473.21Q527.32 472.28 527.32 470.66L527.32 470.66L527.32 469.9Q524.04 470.15 522.24 470.8Q520.44 471.45 520.44 472.89L520.44 472.89Q520.44 473.82 521.22 474.38Q521.99 474.94 523.22 474.94ZM539.13 478.43L539.13 478.43Q537.76 478.43 536.79 477.46Q535.82 476.49 535.82 475.12L535.82 475.12Q535.82 473.75 536.79 472.78Q537.76 471.81 539.13 471.81L539.13 471.81Q540.5 471.81 541.47 472.78Q542.44 473.75 542.44 475.12L542.44 475.12Q542.44 476.49 541.47 477.46Q540.5 478.43 539.13 478.43Z"/><path fill="#E3EEE7" d="M75.09 528.43L75.09 528.43Q72.57 528.43 70.53 527.73Q68.5 527.03 67.06 525.68Q65.62 524.33 64.9 522.42L64.9 522.42L69.69 520.69Q70.01 521.81 70.79 522.58Q71.56 523.36 72.71 523.77Q73.86 524.18 75.23 524.18L75.23 524.18Q76.42 524.18 77.45 523.9Q78.47 523.61 79.12 522.94Q79.77 522.28 79.77 521.2L79.77 521.2Q79.77 519.94 78.78 519.27Q77.79 518.6 75.52 518.14L75.52 518.14L72.53 517.52Q70.3 517.06 68.73 516.19Q67.17 515.33 66.32 514Q65.48 512.66 65.48 510.83L65.48 510.83Q65.48 509.14 66.25 507.77Q67.02 506.4 68.37 505.46Q69.72 504.53 71.51 504.02Q73.29 503.52 75.3 503.52L75.3 503.52Q77.21 503.52 78.99 504.04Q80.78 504.56 82.2 505.68Q83.62 506.8 84.38 508.6L84.38 508.6L79.59 510.32Q79.26 509.5 78.58 508.92Q77.9 508.34 76.96 508.06Q76.02 507.77 74.87 507.77L74.87 507.77Q73.68 507.77 72.75 508.06Q71.81 508.34 71.27 508.94Q70.73 509.53 70.73 510.4L70.73 510.4Q70.73 511.4 71.51 512.03Q72.28 512.66 73.68 512.99L73.68 512.99L76.96 513.64Q79.26 514.14 81.08 514.88Q82.9 515.62 83.96 516.98Q85.02 518.35 85.02 520.62L85.02 520.62Q85.02 523.14 83.62 524.89Q82.22 526.63 79.97 527.53Q77.72 528.43 75.09 528.43ZM96.33 528.43L96.33 528.43Q94.49 528.43 92.84 527.87Q91.18 527.32 89.87 526.16Q88.55 525.01 87.8 523.25Q87.04 521.48 87.04 519.07L87.04 519.07Q87.04 516.62 87.8 514.86Q88.55 513.1 89.87 511.94Q91.18 510.79 92.84 510.23Q94.49 509.68 96.33 509.68L96.33 509.68Q98.13 509.68 99.78 510.23Q101.44 510.79 102.75 511.94Q104.07 513.1 104.84 514.86Q105.62 516.62 105.62 519.07L105.62 519.07Q105.62 521.48 104.84 523.25Q104.07 525.01 102.75 526.16Q101.44 527.32 99.78 527.87Q98.13 528.43 96.33 528.43ZM96.33 524.47L96.33 524.47Q97.44 524.47 98.4 523.95Q99.35 523.43 99.91 522.24Q100.47 521.05 100.47 519.07L100.47 519.07Q100.47 517.06 99.91 515.87Q99.35 514.68 98.4 514.16Q97.44 513.64 96.33 513.64L96.33 513.64Q95.18 513.64 94.24 514.16Q93.3 514.68 92.73 515.87Q92.15 517.06 92.15 519.07L92.15 519.07Q92.15 521.05 92.73 522.24Q93.3 523.43 94.24 523.95Q95.18 524.47 96.33 524.47ZM115.62 528.43L115.62 528.43Q113.39 528.43 111.61 527.3Q109.83 526.16 108.82 524.02Q107.81 521.88 107.81 518.96L107.81 518.96Q107.81 516.05 108.82 513.98Q109.83 511.91 111.61 510.79Q113.39 509.68 115.62 509.68L115.62 509.68Q117.24 509.68 118.77 510.43Q120.3 511.19 121.13 512.66L121.13 512.66L121.13 502.51L126.14 502.51L126.14 521.05Q126.14 522.31 126.26 524.13Q126.39 525.95 126.75 528L126.75 528L122 528L121.28 525.66Q120.16 527.1 118.68 527.77Q117.21 528.43 115.62 528.43ZM117.21 524.51L117.21 524.51Q118.4 524.51 119.31 523.93Q120.23 523.36 120.79 522.15Q121.35 520.94 121.35 519.07L121.35 519.07Q121.35 516.23 120.14 514.91Q118.94 513.6 117.21 513.6L117.21 513.6Q115.48 513.6 114.26 514.99Q113.03 516.37 113.03 518.96L113.03 518.96Q113.03 521.59 114.26 523.05Q115.48 524.51 117.21 524.51ZM137.08 528.43L137.08 528.43Q134.85 528.43 133.07 527.3Q131.28 526.16 130.28 524.02Q129.27 521.88 129.27 518.96L129.27 518.96Q129.27 516.05 130.28 513.98Q131.28 511.91 133.07 510.79Q134.85 509.68 137.08 509.68L137.08 509.68Q138.7 509.68 140.23 510.43Q141.76 511.19 142.59 512.66L142.59 512.66L142.59 502.51L147.59 502.51L147.59 521.05Q147.59 522.31 147.72 524.13Q147.84 525.95 148.2 528L148.2 528L143.45 528L142.73 525.66Q141.62 527.1 140.14 527.77Q138.66 528.43 137.08 528.43ZM138.66 524.51L138.66 524.51Q139.85 524.51 140.77 523.93Q141.69 523.36 142.25 522.15Q142.8 520.94 142.8 519.07L142.8 519.07Q142.8 516.23 141.6 514.91Q140.39 513.6 138.66 513.6L138.66 513.6Q136.94 513.6 135.71 514.99Q134.49 516.37 134.49 518.96L134.49 518.96Q134.49 521.59 135.71 523.05Q136.94 524.51 138.66 524.51ZM158.32 528L153.28 528L153.28 513.96L150.4 513.96L150.4 510.14L158.32 510.14L158.32 528ZM155.55 507.12L155.55 507.12Q154.29 507.12 153.39 506.22Q152.49 505.32 152.49 504.06L152.49 504.06Q152.49 502.76 153.39 501.88Q154.29 501 155.55 501L155.55 501Q156.84 501 157.73 501.88Q158.61 502.76 158.61 504.06L158.61 504.06Q158.61 505.32 157.71 506.22Q156.81 507.12 155.55 507.12ZM169.73 528.47L169.73 528.47Q167.72 528.47 166.01 527.93Q164.3 527.39 163.04 526.38Q161.78 525.37 161.13 523.9L161.13 523.9L165.45 522.35Q165.77 523.5 167.03 524.13Q168.29 524.76 169.8 524.76L169.8 524.76Q171.17 524.76 172.22 524.27Q173.26 523.79 173.26 522.85L173.26 522.85Q173.26 522.17 172.61 521.72Q171.96 521.27 170.34 520.98L170.34 520.98L167.46 520.48Q165.77 520.15 164.49 519.5Q163.22 518.86 162.48 517.81Q161.74 516.77 161.74 515.29L161.74 515.29Q161.74 513.46 162.86 512.2Q163.97 510.94 165.79 510.31Q167.61 509.68 169.7 509.68L169.7 509.68Q172.22 509.68 174.39 510.61Q176.57 511.55 177.58 513.74L177.58 513.74L173.26 515.29Q172.86 514.32 171.89 513.83Q170.92 513.35 169.55 513.35L169.55 513.35Q168.11 513.35 167.32 513.82Q166.53 514.28 166.53 515.04L166.53 515.04Q166.53 515.69 167.07 516.05Q167.61 516.41 168.87 516.66L168.87 516.66L171.86 517.2Q173.98 517.6 175.37 518.23Q176.75 518.86 177.44 519.88Q178.12 520.91 178.12 522.53L178.12 522.53Q178.12 524.47 176.99 525.8Q175.85 527.14 173.96 527.8Q172.07 528.47 169.73 528.47ZM187.16 528L182.12 528L182.12 514L179.16 514L179.16 510.14L182.12 510.14L182.12 507.48Q182.12 505.43 182.78 504.26Q183.45 503.09 184.87 502.62Q186.29 502.15 188.6 502.15L188.6 502.15L191.01 502.15L191.01 506.15L189.42 506.15Q188.02 506.15 187.59 506.47Q187.16 506.8 187.16 507.88L187.16 507.88L187.16 510.14L191.01 510.14L191.01 514L187.16 514L187.16 528ZM198.39 528.43L198.39 528.43Q196.7 528.43 195.29 527.8Q193.89 527.17 193.06 526Q192.23 524.83 192.23 523.21L192.23 523.21Q192.23 521.09 193.71 519.79Q195.18 518.5 197.92 517.79Q200.66 517.09 204.29 516.8L204.29 516.8L204.29 516.3Q204.29 514.68 203.43 513.91Q202.56 513.13 200.94 513.13L200.94 513.13Q199.72 513.13 198.84 513.71Q197.96 514.28 197.67 515.4L197.67 515.4L193.38 513.89Q194.21 512.05 196.25 510.86Q198.28 509.68 201.16 509.68L201.16 509.68Q205.01 509.68 207.05 511.39Q209.08 513.1 209.08 517.09L209.08 517.09L209.08 521.05Q209.08 522.28 209.15 523.59Q209.22 524.9 209.37 526.06Q209.51 527.21 209.69 528L209.69 528L205.05 528L204.36 525.77Q203.43 527.17 201.9 527.8Q200.37 528.43 198.39 528.43ZM200.19 524.94L200.19 524.94Q201.34 524.94 202.28 524.54Q203.21 524.15 203.75 523.21Q204.29 522.28 204.29 520.66L204.29 520.66L204.29 519.9Q201.02 520.15 199.22 520.8Q197.42 521.45 197.42 522.89L197.42 522.89Q197.42 523.82 198.19 524.38Q198.96 524.94 200.19 524.94ZM223.12 528L219.81 528Q217.72 528 216.5 527.62Q215.27 527.24 214.75 526.18Q214.23 525.12 214.23 523.07L214.23 523.07L214.23 514L211.28 514L211.28 510.14L214.23 510.14L214.23 505.68L219.23 505.68L219.23 510.14L223.12 510.14L223.12 514L219.23 514L219.23 521.81Q219.23 523.1 219.7 523.48Q220.17 523.86 221.46 523.86L221.46 523.86L223.12 523.86L223.12 528ZM236.66 528L233.34 528Q231.26 528 230.03 527.62Q228.81 527.24 228.29 526.18Q227.76 525.12 227.76 523.07L227.76 523.07L227.76 514L224.81 514L224.81 510.14L227.76 510.14L227.76 505.68L232.77 505.68L232.77 510.14L236.66 510.14L236.66 514L232.77 514L232.77 521.81Q232.77 523.1 233.24 523.48Q233.7 523.86 235 523.86L235 523.86L236.66 523.86L236.66 528ZM246.66 528L241.62 528L241.62 513.96L238.74 513.96L238.74 510.14L246.66 510.14L246.66 528ZM243.89 507.12L243.89 507.12Q242.63 507.12 241.73 506.22Q240.83 505.32 240.83 504.06L240.83 504.06Q240.83 502.76 241.73 501.88Q242.63 501 243.89 501L243.89 501Q245.19 501 246.07 501.88Q246.95 502.76 246.95 504.06L246.95 504.06Q246.95 505.32 246.05 506.22Q245.15 507.12 243.89 507.12ZM270.39 528.43L270.39 528.43Q268.55 528.43 266.9 527.87Q265.24 527.32 263.93 526.16Q262.61 525.01 261.86 523.25Q261.1 521.48 261.1 519.07L261.1 519.07Q261.1 516.62 261.86 514.86Q262.61 513.1 263.93 511.94Q265.24 510.79 266.9 510.23Q268.55 509.68 270.39 509.68L270.39 509.68Q272.19 509.68 273.84 510.23Q275.5 510.79 276.81 511.94Q278.13 513.1 278.9 514.86Q279.68 516.62 279.68 519.07L279.68 519.07Q279.68 521.48 278.9 523.25Q278.13 525.01 276.81 526.16Q275.5 527.32 273.84 527.87Q272.19 528.43 270.39 528.43ZM270.39 524.47L270.39 524.47Q271.5 524.47 272.46 523.95Q273.41 523.43 273.97 522.24Q274.53 521.05 274.53 519.07L274.53 519.07Q274.53 517.06 273.97 515.87Q273.41 514.68 272.46 514.16Q271.5 513.64 270.39 513.64L270.39 513.64Q269.24 513.64 268.3 514.16Q267.36 514.68 266.79 515.87Q266.21 517.06 266.21 519.07L266.21 519.07Q266.21 521.05 266.79 522.24Q267.36 523.43 268.3 523.95Q269.24 524.47 270.39 524.47ZM299.04 528L294.04 528L294.04 510.14L297.93 510.14L298.9 513.42Q299.51 512.05 300.34 511.21Q301.17 510.36 302.28 510Q303.4 509.64 304.8 509.68L304.8 509.68L304.8 514.72Q302.82 514.5 301.56 514.93Q300.3 515.36 299.67 516.43Q299.04 517.49 299.04 519.25L299.04 519.25L299.04 528ZM314.88 528L309.84 528L309.84 513.96L306.96 513.96L306.96 510.14L314.88 510.14L314.88 528ZM312.11 507.12L312.11 507.12Q310.85 507.12 309.95 506.22Q309.05 505.32 309.05 504.06L309.05 504.06Q309.05 502.76 309.95 501.88Q310.85 501 312.11 501L312.11 501Q313.41 501 314.29 501.88Q315.17 502.76 315.17 504.06L315.17 504.06Q315.17 505.32 314.27 506.22Q313.37 507.12 312.11 507.12ZM324.06 528L319.06 528L319.06 510.14L323.34 510.14L324.06 512.59Q324.46 511.87 325.22 511.22Q325.97 510.58 327.05 510.13Q328.13 509.68 329.46 509.68L329.46 509.68Q331.55 509.68 332.83 510.45Q334.11 511.22 334.72 512.7L334.72 512.7Q335.76 511.19 337.35 510.43Q338.93 509.68 340.8 509.68L340.8 509.68Q343.07 509.68 344.37 510.54Q345.66 511.4 346.22 513.06Q346.78 514.72 346.78 517.06L346.78 517.06L346.78 528L341.78 528L341.78 518.32Q341.78 517.06 341.6 515.98Q341.42 514.9 340.8 514.25Q340.19 513.6 338.79 513.6L338.79 513.6Q337.1 513.6 336.25 514.84Q335.4 516.08 335.4 518.53L335.4 518.53L335.4 528L330.36 528L330.36 518.32Q330.36 517.06 330.22 515.98Q330.08 514.9 329.46 514.25Q328.85 513.6 327.48 513.6L327.48 513.6Q326.33 513.6 325.58 514.19Q324.82 514.79 324.44 515.89Q324.06 516.98 324.06 518.6L324.06 518.6L324.06 528ZM361.32 528.43L361.32 528.43Q360.28 528.43 359.24 528.11Q358.19 527.78 357.29 527.14Q356.39 526.49 355.82 525.52L355.82 525.52L355.1 528L350.81 528L350.81 502.51L355.82 502.51L355.82 512.66Q356.39 511.66 357.29 511.01Q358.19 510.36 359.24 510.02Q360.28 509.68 361.32 509.68L361.32 509.68Q363.56 509.68 365.34 510.79Q367.12 511.91 368.15 513.98Q369.17 516.05 369.17 518.96L369.17 518.96Q369.17 521.88 368.15 524.02Q367.12 526.16 365.34 527.3Q363.56 528.43 361.32 528.43ZM359.78 524.51L359.78 524.51Q361.47 524.51 362.69 523.05Q363.92 521.59 363.92 518.96L363.92 518.96Q363.92 516.37 362.69 514.99Q361.47 513.6 359.78 513.6L359.78 513.6Q358.01 513.6 356.81 514.91Q355.6 516.23 355.6 519.07L355.6 519.07Q355.6 520.94 356.16 522.15Q356.72 523.36 357.65 523.93Q358.59 524.51 359.78 524.51ZM380.62 528.43L380.62 528.43Q378.78 528.43 377.13 527.87Q375.47 527.32 374.16 526.16Q372.84 525.01 372.09 523.25Q371.33 521.48 371.33 519.07L371.33 519.07Q371.33 516.62 372.09 514.86Q372.84 513.1 374.16 511.94Q375.47 510.79 377.13 510.23Q378.78 509.68 380.62 509.68L380.62 509.68Q382.42 509.68 384.08 510.23Q385.73 510.79 387.05 511.94Q388.36 513.1 389.13 514.86Q389.91 516.62 389.91 519.07L389.91 519.07Q389.91 521.48 389.13 523.25Q388.36 525.01 387.05 526.16Q385.73 527.32 384.08 527.87Q382.42 528.43 380.62 528.43ZM380.62 524.47L380.62 524.47Q381.74 524.47 382.69 523.95Q383.64 523.43 384.2 522.24Q384.76 521.05 384.76 519.07L384.76 519.07Q384.76 517.06 384.2 515.87Q383.64 514.68 382.69 514.16Q381.74 513.64 380.62 513.64L380.62 513.64Q379.47 513.64 378.53 514.16Q377.6 514.68 377.02 515.87Q376.44 517.06 376.44 519.07L376.44 519.07Q376.44 521.05 377.02 522.24Q377.6 523.43 378.53 523.95Q379.47 524.47 380.62 524.47ZM398.04 528L393.04 528L393.04 510.14L396.93 510.14L397.9 513.42Q398.51 512.05 399.34 511.21Q400.17 510.36 401.28 510Q402.4 509.64 403.8 509.68L403.8 509.68L403.8 514.72Q401.82 514.5 400.56 514.93Q399.3 515.36 398.67 516.43Q398.04 517.49 398.04 519.25L398.04 519.25L398.04 528ZM413.81 528.47L413.81 528.47Q411.8 528.47 410.09 527.93Q408.38 527.39 407.12 526.38Q405.86 525.37 405.21 523.9L405.21 523.9L409.53 522.35Q409.85 523.5 411.11 524.13Q412.37 524.76 413.88 524.76L413.88 524.76Q415.25 524.76 416.3 524.27Q417.34 523.79 417.34 522.85L417.34 522.85Q417.34 522.17 416.69 521.72Q416.04 521.27 414.42 520.98L414.42 520.98L411.54 520.48Q409.85 520.15 408.57 519.5Q407.3 518.86 406.56 517.81Q405.82 516.77 405.82 515.29L405.82 515.29Q405.82 513.46 406.94 512.2Q408.05 510.94 409.87 510.31Q411.69 509.68 413.78 509.68L413.78 509.68Q416.3 509.68 418.47 510.61Q420.65 511.55 421.66 513.74L421.66 513.74L417.34 515.29Q416.94 514.32 415.97 513.83Q415 513.35 413.63 513.35L413.63 513.35Q412.19 513.35 411.4 513.82Q410.61 514.28 410.61 515.04L410.61 515.04Q410.61 515.69 411.15 516.05Q411.69 516.41 412.95 516.66L412.95 516.66L415.94 517.2Q418.06 517.6 419.45 518.23Q420.83 518.86 421.52 519.88Q422.2 520.91 422.2 522.53L422.2 522.53Q422.2 524.47 421.07 525.8Q419.93 527.14 418.04 527.8Q416.15 528.47 413.81 528.47ZM429.87 528.43L429.87 528.43Q428.18 528.43 426.77 527.8Q425.37 527.17 424.54 526Q423.71 524.83 423.71 523.21L423.71 523.21Q423.71 521.09 425.19 519.79Q426.66 518.5 429.4 517.79Q432.14 517.09 435.77 516.8L435.77 516.8L435.77 516.3Q435.77 514.68 434.91 513.91Q434.04 513.13 432.42 513.13L432.42 513.13Q431.2 513.13 430.32 513.71Q429.44 514.28 429.15 515.4L429.15 515.4L424.86 513.89Q425.69 512.05 427.73 510.86Q429.76 509.68 432.64 509.68L432.64 509.68Q436.49 509.68 438.53 511.39Q440.56 513.1 440.56 517.09L440.56 517.09L440.56 521.05Q440.56 522.28 440.63 523.59Q440.7 524.9 440.85 526.06Q440.99 527.21 441.17 528L441.17 528L436.53 528L435.84 525.77Q434.91 527.17 433.38 527.8Q431.85 528.43 429.87 528.43ZM431.67 524.94L431.67 524.94Q432.82 524.94 433.76 524.54Q434.69 524.15 435.23 523.21Q435.77 522.28 435.77 520.66L435.77 520.66L435.77 519.9Q432.5 520.15 430.7 520.8Q428.9 521.45 428.9 522.89L428.9 522.89Q428.9 523.82 429.67 524.38Q430.44 524.94 431.67 524.94ZM454.6 528L451.29 528Q449.2 528 447.98 527.62Q446.75 527.24 446.23 526.18Q445.71 525.12 445.71 523.07L445.71 523.07L445.71 514L442.76 514L442.76 510.14L445.71 510.14L445.71 505.68L450.71 505.68L450.71 510.14L454.6 510.14L454.6 514L450.71 514L450.71 521.81Q450.71 523.1 451.18 523.48Q451.65 523.86 452.94 523.86L452.94 523.86L454.6 523.86L454.6 528ZM464.61 528L459.57 528L459.57 513.96L456.69 513.96L456.69 510.14L464.61 510.14L464.61 528ZM461.84 507.12L461.84 507.12Q460.58 507.12 459.68 506.22Q458.78 505.32 458.78 504.06L458.78 504.06Q458.78 502.76 459.68 501.88Q460.58 501 461.84 501L461.84 501Q463.13 501 464.01 501.88Q464.9 502.76 464.9 504.06L464.9 504.06Q464.9 505.32 464 506.22Q463.1 507.12 461.84 507.12ZM471.63 528.43L471.63 528.43Q470.26 528.43 469.29 527.46Q468.32 526.49 468.32 525.12L468.32 525.12Q468.32 523.75 469.29 522.78Q470.26 521.81 471.63 521.81L471.63 521.81Q473 521.81 473.97 522.78Q474.94 523.75 474.94 525.12L474.94 525.12Q474.94 526.49 473.97 527.46Q473 528.43 471.63 528.43Z"/><rect x="64" y="548" width="318.63" height="58" rx="14" fill="#F5B21B"/><path fill="#0F2F23" d="M100.18 587L95.8 587L95.8 566.96L104.62 566.96Q106.75 566.96 108.46 567.61Q110.17 568.25 111.19 569.62Q112.21 570.98 112.21 573.17L112.21 573.17Q112.21 575.63 110.84 577.07Q109.48 578.51 107.32 578.96L107.32 578.96L113.11 587L107.95 587L102.58 579.35L100.18 579.35L100.18 587ZM100.18 570.68L100.18 575.63L104.44 575.63Q105.37 575.63 106.09 575.39Q106.81 575.15 107.22 574.6Q107.62 574.04 107.62 573.17L107.62 573.17Q107.62 572.27 107.22 571.72Q106.81 571.16 106.09 570.92Q105.37 570.68 104.44 570.68L104.44 570.68L100.18 570.68ZM120.73 587L116.53 587L116.53 575.3L114.13 575.3L114.13 572.12L120.73 572.12L120.73 587ZM118.42 569.6L118.42 569.6Q117.37 569.6 116.62 568.85Q115.87 568.1 115.87 567.05L115.87 567.05Q115.87 565.97 116.62 565.24Q117.37 564.5 118.42 564.5L118.42 564.5Q119.5 564.5 120.23 565.24Q120.97 565.97 120.97 567.05L120.97 567.05Q120.97 568.1 120.22 568.85Q119.47 569.6 118.42 569.6ZM130.87 587.36L130.87 587.36Q128.47 587.36 126.81 586.37Q125.14 585.38 124.27 583.6Q123.4 581.81 123.4 579.5L123.4 579.5Q123.4 577.19 124.34 575.43Q125.29 573.68 126.98 572.71Q128.68 571.73 130.93 571.73L130.93 571.73Q132.22 571.73 133.47 572.11Q134.71 572.48 135.75 573.32Q136.78 574.16 137.44 575.54L137.44 575.54L133.9 576.8Q133.54 575.87 132.79 575.45Q132.04 575.03 131.11 575.03L131.11 575.03Q130.24 575.03 129.44 575.47Q128.65 575.9 128.16 576.89Q127.66 577.88 127.66 579.53L127.66 579.53Q127.66 581.18 128.17 582.18Q128.68 583.19 129.46 583.63Q130.24 584.06 131.11 584.06L131.11 584.06Q132.13 584.06 132.84 583.65Q133.54 583.25 133.96 582.56L133.96 582.56L137.41 583.82Q136.69 585.08 135.63 585.88Q134.56 586.67 133.33 587.01Q132.1 587.36 130.87 587.36ZM144.28 587L140.11 587L140.11 565.76L144.28 565.76L144.28 574.16Q144.61 573.56 145.25 573.02Q145.9 572.48 146.81 572.11Q147.73 571.73 148.9 571.73L148.9 571.73Q150.79 571.73 151.88 572.45Q152.98 573.17 153.44 574.55Q153.91 575.93 153.91 577.88L153.91 577.88L153.91 587L149.71 587L149.71 578.93Q149.71 577.88 149.58 576.98Q149.44 576.08 148.93 575.54Q148.42 575 147.25 575L147.25 575Q145.75 575 145.02 576.08Q144.28 577.16 144.28 579.26L144.28 579.26L144.28 587ZM162.52 587L158.32 587L158.32 575.3L155.92 575.3L155.92 572.12L162.52 572.12L162.52 587ZM160.21 569.6L160.21 569.6Q159.16 569.6 158.41 568.85Q157.66 568.1 157.66 567.05L157.66 567.05Q157.66 565.97 158.41 565.24Q159.16 564.5 160.21 564.5L160.21 564.5Q161.29 564.5 162.03 565.24Q162.76 565.97 162.76 567.05L162.76 567.05Q162.76 568.1 162.01 568.85Q161.26 569.6 160.21 569.6ZM173.17 587.36L173.17 587.36Q170.77 587.36 168.97 586.4Q167.17 585.44 166.18 583.67Q165.19 581.9 165.19 579.5L165.19 579.5Q165.19 577.13 166.26 575.39Q167.32 573.65 169.11 572.69Q170.89 571.73 173.02 571.73L173.02 571.73Q174.82 571.73 176.28 572.4Q177.73 573.08 178.72 574.28Q179.71 575.48 180.18 577.12Q180.64 578.75 180.49 580.67L180.49 580.67L169.3 580.67Q169.48 581.6 169.86 582.25Q170.23 582.89 170.74 583.29Q171.25 583.7 171.87 583.88Q172.48 584.06 173.08 584.06L173.08 584.06Q174.16 584.06 174.94 583.73Q175.72 583.4 176.17 582.89L176.17 582.89L179.56 584.09Q178.48 585.74 176.77 586.55Q175.06 587.36 173.17 587.36ZM169.27 578.06L169.27 578.06L176.56 578.06Q176.53 577.07 176.07 576.37Q175.6 575.66 174.85 575.27Q174.1 574.88 173.11 574.88L173.11 574.88Q172.24 574.88 171.43 575.2Q170.62 575.51 170.07 576.18Q169.51 576.86 169.27 578.06ZM188.59 587.36L188.59 587.36Q186.73 587.36 185.25 586.41Q183.76 585.47 182.92 583.68Q182.08 581.9 182.08 579.47L182.08 579.47Q182.08 577.04 182.92 575.32Q183.76 573.59 185.25 572.66Q186.73 571.73 188.59 571.73L188.59 571.73Q189.94 571.73 191.22 572.36Q192.49 572.99 193.18 574.22L193.18 574.22L193.18 565.76L197.35 565.76L197.35 581.21Q197.35 582.26 197.46 583.77Q197.56 585.29 197.86 587L197.86 587L193.9 587L193.3 585.05Q192.37 586.25 191.14 586.8Q189.91 587.36 188.59 587.36ZM189.91 584.09L189.91 584.09Q190.9 584.09 191.67 583.61Q192.43 583.13 192.9 582.13Q193.36 581.12 193.36 579.56L193.36 579.56Q193.36 577.19 192.36 576.1Q191.35 575 189.91 575L189.91 575Q188.47 575 187.45 576.15Q186.43 577.31 186.43 579.47L186.43 579.47Q186.43 581.66 187.45 582.88Q188.47 584.09 189.91 584.09ZM206.29 587L202.09 587L202.09 575.3L199.69 575.3L199.69 572.12L206.29 572.12L206.29 587ZM203.98 569.6L203.98 569.6Q202.93 569.6 202.18 568.85Q201.43 568.1 201.43 567.05L201.43 567.05Q201.43 565.97 202.18 565.24Q202.93 564.5 203.98 564.5L203.98 564.5Q205.06 564.5 205.8 565.24Q206.53 565.97 206.53 567.05L206.53 567.05Q206.53 568.1 205.78 568.85Q205.03 569.6 203.98 569.6ZM224.65 587L220.45 587L220.45 575.3L218.05 575.3L218.05 572.12L224.65 572.12L224.65 587ZM222.34 569.6L222.34 569.6Q221.29 569.6 220.54 568.85Q219.79 568.1 219.79 567.05L219.79 567.05Q219.79 565.97 220.54 565.24Q221.29 564.5 222.34 564.5L222.34 564.5Q223.42 564.5 224.16 565.24Q224.89 565.97 224.89 567.05L224.89 567.05Q224.89 568.1 224.14 568.85Q223.39 569.6 222.34 569.6ZM235.36 587L232.69 587Q230.95 587 229.93 586.68Q228.91 586.37 228.46 585.49Q228.01 584.6 228.01 582.92L228.01 582.92L228.01 565.76L232.21 565.76L232.21 581.9Q232.21 582.92 232.6 583.24Q232.99 583.55 234.13 583.55L234.13 583.55L235.36 583.55L235.36 587ZM255.55 587L252.79 587Q251.05 587 250.03 586.68Q249.01 586.37 248.57 585.49Q248.14 584.6 248.14 582.89L248.14 582.89L248.14 575.33L245.68 575.33L245.68 572.12L248.14 572.12L248.14 568.4L252.31 568.4L252.31 572.12L255.55 572.12L255.55 575.33L252.31 575.33L252.31 581.84Q252.31 582.92 252.7 583.24Q253.09 583.55 254.17 583.55L254.17 583.55L255.55 583.55L255.55 587ZM263.32 587.36L263.32 587.36Q261.4 587.36 260.29 586.63Q259.18 585.89 258.71 584.5Q258.25 583.1 258.25 581.15L258.25 581.15L258.25 572.12L262.42 572.12L262.42 580.1Q262.42 581.15 262.54 582.08Q262.66 583.01 263.18 583.53Q263.71 584.06 264.85 584.06L264.85 584.06Q266.35 584.06 267.02 583.1Q267.7 582.14 267.7 580.01L267.7 580.01L267.7 572.12L271.9 572.12L271.9 587L268.33 587L267.7 584.9Q267.04 585.98 266.05 586.67Q265.06 587.36 263.32 587.36ZM282.25 587.36L282.25 587.36Q280.72 587.36 279.34 586.89Q277.96 586.43 276.86 585.47Q275.77 584.51 275.14 583.04Q274.51 581.57 274.51 579.56L274.51 579.56Q274.51 577.52 275.14 576.05Q275.77 574.58 276.86 573.62Q277.96 572.66 279.34 572.2Q280.72 571.73 282.25 571.73L282.25 571.73Q283.75 571.73 285.13 572.2Q286.51 572.66 287.6 573.62Q288.7 574.58 289.34 576.05Q289.99 577.52 289.99 579.56L289.99 579.56Q289.99 581.57 289.34 583.04Q288.7 584.51 287.6 585.47Q286.51 586.43 285.13 586.89Q283.75 587.36 282.25 587.36ZM282.25 584.06L282.25 584.06Q283.18 584.06 283.97 583.63Q284.77 583.19 285.23 582.2Q285.7 581.21 285.7 579.56L285.7 579.56Q285.7 577.88 285.23 576.89Q284.77 575.9 283.97 575.47Q283.18 575.03 282.25 575.03L282.25 575.03Q281.29 575.03 280.51 575.47Q279.73 575.9 279.25 576.89Q278.77 577.88 278.77 579.56L278.77 579.56Q278.77 581.21 279.25 582.2Q279.73 583.19 280.51 583.63Q281.29 584.06 282.25 584.06ZM307.99 587.39L307.99 587.39Q306.31 587.39 304.88 586.94Q303.46 586.49 302.41 585.65Q301.36 584.81 300.82 583.58L300.82 583.58L304.42 582.29Q304.69 583.25 305.74 583.77Q306.79 584.3 308.05 584.3L308.05 584.3Q309.19 584.3 310.06 583.89Q310.93 583.49 310.93 582.71L310.93 582.71Q310.93 582.14 310.39 581.76Q309.85 581.39 308.5 581.15L308.5 581.15L306.1 580.73Q304.69 580.46 303.63 579.92Q302.56 579.38 301.94 578.51Q301.33 577.64 301.33 576.41L301.33 576.41Q301.33 574.88 302.26 573.83Q303.19 572.78 304.7 572.25Q306.22 571.73 307.96 571.73L307.96 571.73Q310.06 571.73 311.88 572.51Q313.69 573.29 314.53 575.12L314.53 575.12L310.93 576.41Q310.6 575.6 309.79 575.2Q308.98 574.79 307.84 574.79L307.84 574.79Q306.64 574.79 305.98 575.18Q305.32 575.57 305.32 576.2L305.32 576.2Q305.32 576.74 305.77 577.04Q306.22 577.34 307.27 577.55L307.27 577.55L309.76 578Q311.53 578.33 312.69 578.86Q313.84 579.38 314.41 580.24Q314.98 581.09 314.98 582.44L314.98 582.44Q314.98 584.06 314.04 585.17Q313.09 586.28 311.51 586.84Q309.94 587.39 307.99 587.39ZM322.72 587L318.52 587L318.52 575.3L316.12 575.3L316.12 572.12L322.72 572.12L322.72 587ZM320.41 569.6L320.41 569.6Q319.36 569.6 318.61 568.85Q317.86 568.1 317.86 567.05L317.86 567.05Q317.86 565.97 318.61 565.24Q319.36 564.5 320.41 564.5L320.41 564.5Q321.49 564.5 322.23 565.24Q322.96 565.97 322.96 567.05L322.96 567.05Q322.96 568.1 322.21 568.85Q321.46 569.6 320.41 569.6ZM334.72 587L331.96 587Q330.22 587 329.2 586.68Q328.18 586.37 327.75 585.49Q327.31 584.6 327.31 582.89L327.31 582.89L327.31 575.33L324.85 575.33L324.85 572.12L327.31 572.12L327.31 568.4L331.48 568.4L331.48 572.12L334.72 572.12L334.72 575.33L331.48 575.33L331.48 581.84Q331.48 582.92 331.87 583.24Q332.26 583.55 333.34 583.55L333.34 583.55L334.72 583.55L334.72 587ZM343.99 587.36L343.99 587.36Q342.46 587.36 341.08 586.89Q339.7 586.43 338.61 585.47Q337.51 584.51 336.88 583.04Q336.25 581.57 336.25 579.56L336.25 579.56Q336.25 577.52 336.88 576.05Q337.51 574.58 338.61 573.62Q339.7 572.66 341.08 572.2Q342.46 571.73 343.99 571.73L343.99 571.73Q345.49 571.73 346.87 572.2Q348.25 572.66 349.35 573.62Q350.44 574.58 351.09 576.05Q351.73 577.52 351.73 579.56L351.73 579.56Q351.73 581.57 351.09 583.04Q350.44 584.51 349.35 585.47Q348.25 586.43 346.87 586.89Q345.49 587.36 343.99 587.36ZM343.99 584.06L343.99 584.06Q344.92 584.06 345.72 583.63Q346.51 583.19 346.98 582.2Q347.44 581.21 347.44 579.56L347.44 579.56Q347.44 577.88 346.98 576.89Q346.51 575.9 345.72 575.47Q344.92 575.03 343.99 575.03L343.99 575.03Q343.03 575.03 342.25 575.47Q341.47 575.9 340.99 576.89Q340.51 577.88 340.51 579.56L340.51 579.56Q340.51 581.21 340.99 582.2Q341.47 583.19 342.25 583.63Q343.03 584.06 343.99 584.06Z"/></svg>
